<?xml version="1.0" encoding="UTF-8" standalone="no"?>
<!DOCTYPE svg PUBLIC "-//W3C//DTD SVG 1.1//EN"
 "http://www.w3.org/Graphics/SVG/1.1/DTD/svg11.dtd">
<!-- Generated by graphviz version 3.0.0 (20220226.1711)
 -->
<!-- Pages: 1 -->
<svg width="256pt" height="116pt"
 viewBox="0.00 0.00 255.50 116.00" xmlns="http://www.w3.org/2000/svg" xmlns:xlink="http://www.w3.org/1999/xlink">
<g id="graph0" class="graph" transform="scale(1 1) rotate(0) translate(4 112)">
<polygon fill="transparent" stroke="transparent" points="-4,4 -4,-112 251.5,-112 251.5,4 -4,4"/>
<!-- 3 -->
<g id="node1" class="node">
<title>3</title>
<g id="a_node1"><a xlink:title="DatasetsStorage_ifs">
<polygon fill="#ffffff" stroke="black" points="128,-36 0,-36 0,0 128,0 128,-36"/>
<text text-anchor="middle" x="64" y="-14.3" font-family="Times New Roman,serif" font-size="14.00">DatasetsStorage_ifs</text>
</a>
</g>
</g>
<!-- 1 -->
<g id="node2" class="node">
<title>1</title>
<g id="a_node2"><a xlink:title="ExDataInterval">
<polygon fill="#bfbfbf" stroke="black" points="179,-108 81,-108 81,-72 179,-72 179,-108"/>
<text text-anchor="middle" x="130" y="-86.3" font-family="Times New Roman,serif" font-size="14.00">ExDataInterval</text>
</a>
</g>
</g>
<!-- 1&#45;&gt;3 -->
<g id="edge2" class="edge">
<title>1&#45;&gt;3</title>
<g id="a_edge2"><a xlink:title="usage">
<path fill="none" stroke="#1414ce" d="M113.69,-71.7C105.69,-63.22 95.93,-52.86 87.18,-43.58"/>
<polygon fill="#1414ce" stroke="#1414ce" points="89.53,-40.98 80.13,-36.1 84.44,-45.78 89.53,-40.98"/>
</a>
</g>
</g>
<!-- 2 -->
<g id="node3" class="node">
<title>2</title>
<g id="a_node3"><a xlink:title="ExTimeInterval">
<polygon fill="#ffffff" stroke="black" points="247.5,-36 146.5,-36 146.5,0 247.5,0 247.5,-36"/>
<text text-anchor="middle" x="197" y="-14.3" font-family="Times New Roman,serif" font-size="14.00">ExTimeInterval</text>
</a>
</g>
</g>
<!-- 1&#45;&gt;2 -->
<g id="edge1" class="edge">
<title>1&#45;&gt;2</title>
<g id="a_edge1"><a xlink:title="usage">
<path fill="none" stroke="#1414ce" d="M146.56,-71.7C154.68,-63.22 164.59,-52.86 173.47,-43.58"/>
<polygon fill="#1414ce" stroke="#1414ce" points="176.24,-45.75 180.63,-36.1 171.19,-40.91 176.24,-45.75"/>
</a>
</g>
</g>
</g>
</svg>
