<?xml version="1.0" encoding="UTF-8" standalone="no"?>
<!DOCTYPE svg PUBLIC "-//W3C//DTD SVG 1.1//EN"
 "http://www.w3.org/Graphics/SVG/1.1/DTD/svg11.dtd">
<!-- Generated by graphviz version 3.0.0 (20220226.1711)
 -->
<!-- Pages: 1 -->
<svg width="214pt" height="116pt"
 viewBox="0.00 0.00 213.50 116.00" xmlns="http://www.w3.org/2000/svg" xmlns:xlink="http://www.w3.org/1999/xlink">
<g id="graph0" class="graph" transform="scale(1 1) rotate(0) translate(4 112)">
<polygon fill="transparent" stroke="transparent" points="-4,4 -4,-112 209.5,-112 209.5,4 -4,4"/>
<!-- 2 -->
<g id="node1" class="node">
<title>2</title>
<g id="a_node1"><a xlink:title="ExStreamIfs">
<polygon fill="#ffffff" stroke="black" points="86,-36 0,-36 0,0 86,0 86,-36"/>
<text text-anchor="middle" x="43" y="-14.3" font-family="Times New Roman,serif" font-size="14.00">ExStreamIfs</text>
</a>
</g>
</g>
<!-- 3 -->
<g id="node2" class="node">
<title>3</title>
<g id="a_node2"><a xlink:title="ExTimeInterval">
<polygon fill="#ffffff" stroke="black" points="205.5,-36 104.5,-36 104.5,0 205.5,0 205.5,-36"/>
<text text-anchor="middle" x="155" y="-14.3" font-family="Times New Roman,serif" font-size="14.00">ExTimeInterval</text>
</a>
</g>
</g>
<!-- 1 -->
<g id="node3" class="node">
<title>1</title>
<g id="a_node3"><a xlink:title="ParameterIfs">
<polygon fill="#bfbfbf" stroke="black" points="142.5,-108 55.5,-108 55.5,-72 142.5,-72 142.5,-108"/>
<text text-anchor="middle" x="99" y="-86.3" font-family="Times New Roman,serif" font-size="14.00">ParameterIfs</text>
</a>
</g>
</g>
<!-- 1&#45;&gt;2 -->
<g id="edge1" class="edge">
<title>1&#45;&gt;2</title>
<g id="a_edge1"><a xlink:title="usage">
<path fill="none" stroke="#1414ce" d="M85.16,-71.7C78.51,-63.39 70.42,-53.28 63.11,-44.14"/>
<polygon fill="#1414ce" stroke="#1414ce" points="65.66,-41.73 56.68,-36.1 60.2,-46.1 65.66,-41.73"/>
</a>
</g>
</g>
<!-- 1&#45;&gt;3 -->
<g id="edge2" class="edge">
<title>1&#45;&gt;3</title>
<g id="a_edge2"><a xlink:title="usage">
<path fill="none" stroke="#1414ce" d="M112.84,-71.7C119.49,-63.39 127.58,-53.28 134.89,-44.14"/>
<polygon fill="#1414ce" stroke="#1414ce" points="137.8,-46.1 141.32,-36.1 132.34,-41.73 137.8,-46.1"/>
</a>
</g>
</g>
</g>
</svg>
