<?xml version="1.0" encoding="UTF-8" standalone="no"?>
<!DOCTYPE svg PUBLIC "-//W3C//DTD SVG 1.1//EN"
 "http://www.w3.org/Graphics/SVG/1.1/DTD/svg11.dtd">
<!-- Generated by graphviz version 3.0.0 (20220226.1711)
 -->
<!-- Pages: 1 -->
<svg width="316pt" height="260pt"
 viewBox="0.00 0.00 316.00 260.00" xmlns="http://www.w3.org/2000/svg" xmlns:xlink="http://www.w3.org/1999/xlink">
<g id="graph0" class="graph" transform="scale(1 1) rotate(0) translate(4 256)">
<polygon fill="transparent" stroke="transparent" points="-4,4 -4,-256 312,-256 312,4 -4,4"/>
<!-- 6 -->
<g id="node1" class="node">
<title>6</title>
<g id="a_node1"><a xlink:title="ExStreamIfs">
<polygon fill="#ffffff" stroke="black" points="86,-36 0,-36 0,0 86,0 86,-36"/>
<text text-anchor="middle" x="43" y="-14.3" font-family="Times New Roman,serif" font-size="14.00">ExStreamIfs</text>
</a>
</g>
</g>
<!-- 7 -->
<g id="node2" class="node">
<title>7</title>
<g id="a_node2"><a xlink:title="ExTimeInterval">
<polygon fill="#ffffff" stroke="black" points="205.5,-36 104.5,-36 104.5,0 205.5,0 205.5,-36"/>
<text text-anchor="middle" x="155" y="-14.3" font-family="Times New Roman,serif" font-size="14.00">ExTimeInterval</text>
</a>
</g>
</g>
<!-- 2 -->
<g id="node3" class="node">
<title>2</title>
<g id="a_node3"><a xlink:title="ExValue_ifs">
<polygon fill="#ffffff" stroke="black" points="277,-180 193,-180 193,-144 277,-144 277,-180"/>
<text text-anchor="middle" x="235" y="-158.3" font-family="Times New Roman,serif" font-size="14.00">ExValue_ifs</text>
</a>
</g>
</g>
<!-- 5 -->
<g id="node5" class="node">
<title>5</title>
<g id="a_node5"><a xlink:title="ParameterIfs">
<polygon fill="#ffffff" stroke="black" points="183.5,-108 96.5,-108 96.5,-72 183.5,-72 183.5,-108"/>
<text text-anchor="middle" x="140" y="-86.3" font-family="Times New Roman,serif" font-size="14.00">ParameterIfs</text>
</a>
</g>
</g>
<!-- 2&#45;&gt;5 -->
<g id="edge3" class="edge">
<title>2&#45;&gt;5</title>
<g id="a_edge3"><a xlink:title="usage">
<path fill="none" stroke="#1414ce" d="M211.52,-143.7C199.44,-134.8 184.55,-123.82 171.48,-114.2"/>
<polygon fill="#1414ce" stroke="#1414ce" points="173.34,-111.22 163.21,-108.1 169.19,-116.85 173.34,-111.22"/>
</a>
</g>
</g>
<!-- 3 -->
<g id="node6" class="node">
<title>3</title>
<g id="a_node6"><a xlink:title="SmallArr">
<polygon fill="#ffffff" stroke="black" points="268,-108 202,-108 202,-72 268,-72 268,-108"/>
<text text-anchor="middle" x="235" y="-86.3" font-family="Times New Roman,serif" font-size="14.00">SmallArr</text>
</a>
</g>
</g>
<!-- 2&#45;&gt;3 -->
<g id="edge1" class="edge">
<title>2&#45;&gt;3</title>
<g id="a_edge1"><a xlink:title="public&#45;inheritance">
<path fill="none" stroke="#1414ce" d="M235,-143.7C235,-135.98 235,-126.71 235,-118.11"/>
<polygon fill="#1414ce" stroke="#1414ce" points="238.5,-118.1 235,-108.1 231.5,-118.1 238.5,-118.1"/>
</a>
</g>
</g>
<!-- 4 -->
<g id="node7" class="node">
<title>4</title>
<g id="a_node7"><a xlink:title="string">
<polygon fill="#ffffff" stroke="black" points="308,-36 254,-36 254,0 308,0 308,-36"/>
<text text-anchor="middle" x="281" y="-14.3" font-family="Times New Roman,serif" font-size="14.00">string</text>
</a>
</g>
</g>
<!-- 2&#45;&gt;4 -->
<g id="edge2" class="edge">
<title>2&#45;&gt;4</title>
<g id="a_edge2"><a xlink:title="usage">
<path fill="none" stroke="#1414ce" d="M253.36,-143.67C262.21,-134.08 271.99,-121.42 277,-108 284.39,-88.23 285.03,-64.25 284.03,-46.16"/>
<polygon fill="#1414ce" stroke="#1414ce" points="287.51,-45.72 283.26,-36.01 280.53,-46.25 287.51,-45.72"/>
</a>
</g>
</g>
<!-- 1 -->
<g id="node4" class="node">
<title>1</title>
<g id="a_node4"><a xlink:title="Operation_ifs">
<polygon fill="#bfbfbf" stroke="black" points="281.5,-252 188.5,-252 188.5,-216 281.5,-216 281.5,-252"/>
<text text-anchor="middle" x="235" y="-230.3" font-family="Times New Roman,serif" font-size="14.00">Operation_ifs</text>
</a>
</g>
</g>
<!-- 1&#45;&gt;2 -->
<g id="edge4" class="edge">
<title>1&#45;&gt;2</title>
<g id="a_edge4"><a xlink:title="public&#45;inheritance">
<path fill="none" stroke="#1414ce" d="M235,-215.7C235,-207.98 235,-198.71 235,-190.11"/>
<polygon fill="#1414ce" stroke="#1414ce" points="238.5,-190.1 235,-180.1 231.5,-190.1 238.5,-190.1"/>
</a>
</g>
</g>
<!-- 5&#45;&gt;6 -->
<g id="edge5" class="edge">
<title>5&#45;&gt;6</title>
<g id="a_edge5"><a xlink:title="usage">
<path fill="none" stroke="#1414ce" d="M116.02,-71.7C103.69,-62.8 88.48,-51.82 75.15,-42.2"/>
<polygon fill="#1414ce" stroke="#1414ce" points="76.86,-39.12 66.7,-36.1 72.76,-44.79 76.86,-39.12"/>
</a>
</g>
</g>
<!-- 5&#45;&gt;7 -->
<g id="edge7" class="edge">
<title>5&#45;&gt;7</title>
<g id="a_edge7"><a xlink:title="usage">
<path fill="none" stroke="#1414ce" d="M143.71,-71.7C145.36,-63.98 147.35,-54.71 149.19,-46.11"/>
<polygon fill="#1414ce" stroke="#1414ce" points="152.66,-46.62 151.33,-36.1 145.82,-45.15 152.66,-46.62"/>
</a>
</g>
</g>
<!-- 5&#45;&gt;4 -->
<g id="edge6" class="edge">
<title>5&#45;&gt;4</title>
<g id="a_edge6"><a xlink:title="usage">
<path fill="none" stroke="#1414ce" d="M174.49,-71.88C195.8,-61.3 223.1,-47.74 244.73,-37.01"/>
<polygon fill="#1414ce" stroke="#1414ce" points="246.52,-40.03 253.92,-32.44 243.41,-33.76 246.52,-40.03"/>
</a>
</g>
</g>
</g>
</svg>
