<?xml version="1.0" encoding="UTF-8" standalone="no"?>
<!DOCTYPE svg PUBLIC "-//W3C//DTD SVG 1.1//EN"
 "http://www.w3.org/Graphics/SVG/1.1/DTD/svg11.dtd">
<!-- Generated by graphviz version 3.0.0 (20220226.1711)
 -->
<!-- Pages: 1 -->
<svg width="342pt" height="260pt"
 viewBox="0.00 0.00 341.50 260.00" xmlns="http://www.w3.org/2000/svg" xmlns:xlink="http://www.w3.org/1999/xlink">
<g id="graph0" class="graph" transform="scale(1 1) rotate(0) translate(4 256)">
<polygon fill="transparent" stroke="transparent" points="-4,4 -4,-256 337.5,-256 337.5,4 -4,4"/>
<!-- 2 -->
<g id="node1" class="node">
<title>2</title>
<g id="a_node1"><a xlink:title="ExErrorStream">
<polygon fill="#ffffff" stroke="black" points="100,-108 0,-108 0,-72 100,-72 100,-108"/>
<text text-anchor="middle" x="50" y="-86.3" font-family="Times New Roman,serif" font-size="14.00">ExErrorStream</text>
</a>
</g>
</g>
<!-- 1 -->
<g id="node4" class="node">
<title>1</title>
<g id="a_node4"><a xlink:title="ExStreamIfs">
<polygon fill="#bfbfbf" stroke="black" points="197,-36 111,-36 111,0 197,0 197,-36"/>
<text text-anchor="middle" x="154" y="-14.3" font-family="Times New Roman,serif" font-size="14.00">ExStreamIfs</text>
</a>
</g>
</g>
<!-- 2&#45;&gt;1 -->
<g id="edge1" class="edge">
<title>2&#45;&gt;1</title>
<g id="a_edge1"><a xlink:title="public&#45;inheritance">
<path fill="none" stroke="#1414ce" d="M75.44,-71.88C88.79,-62.89 105.32,-51.76 119.78,-42.03"/>
<polygon fill="#1414ce" stroke="#1414ce" points="122.12,-44.68 128.46,-36.19 118.21,-38.87 122.12,-44.68"/>
</a>
</g>
</g>
<!-- 6 -->
<g id="node2" class="node">
<title>6</title>
<g id="a_node2"><a xlink:title="ExErrorStringStream">
<polygon fill="#ffffff" stroke="black" points="333.5,-252 200.5,-252 200.5,-216 333.5,-216 333.5,-252"/>
<text text-anchor="middle" x="267" y="-230.3" font-family="Times New Roman,serif" font-size="14.00">ExErrorStringStream</text>
</a>
</g>
</g>
<!-- 5 -->
<g id="node5" class="node">
<title>5</title>
<g id="a_node5"><a xlink:title="ExStringStream">
<polygon fill="#ffffff" stroke="black" points="319,-180 215,-180 215,-144 319,-144 319,-180"/>
<text text-anchor="middle" x="267" y="-158.3" font-family="Times New Roman,serif" font-size="14.00">ExStringStream</text>
</a>
</g>
</g>
<!-- 6&#45;&gt;5 -->
<g id="edge2" class="edge">
<title>6&#45;&gt;5</title>
<g id="a_edge2"><a xlink:title="public&#45;inheritance">
<path fill="none" stroke="#1414ce" d="M267,-215.7C267,-207.98 267,-198.71 267,-190.11"/>
<polygon fill="#1414ce" stroke="#1414ce" points="270.5,-190.1 267,-180.1 263.5,-190.1 270.5,-190.1"/>
</a>
</g>
</g>
<!-- 3 -->
<g id="node3" class="node">
<title>3</title>
<g id="a_node3"><a xlink:title="ExStream">
<polygon fill="#ffffff" stroke="black" points="189.5,-108 118.5,-108 118.5,-72 189.5,-72 189.5,-108"/>
<text text-anchor="middle" x="154" y="-86.3" font-family="Times New Roman,serif" font-size="14.00">ExStream</text>
</a>
</g>
</g>
<!-- 3&#45;&gt;1 -->
<g id="edge3" class="edge">
<title>3&#45;&gt;1</title>
<g id="a_edge3"><a xlink:title="public&#45;inheritance">
<path fill="none" stroke="#1414ce" d="M154,-71.7C154,-63.98 154,-54.71 154,-46.11"/>
<polygon fill="#1414ce" stroke="#1414ce" points="157.5,-46.1 154,-36.1 150.5,-46.1 157.5,-46.1"/>
</a>
</g>
</g>
<!-- 4 -->
<g id="node6" class="node">
<title>4</title>
<g id="a_node6"><a xlink:title="ExStringStreamIfs">
<polygon fill="#ffffff" stroke="black" points="326.5,-108 207.5,-108 207.5,-72 326.5,-72 326.5,-108"/>
<text text-anchor="middle" x="267" y="-86.3" font-family="Times New Roman,serif" font-size="14.00">ExStringStreamIfs</text>
</a>
</g>
</g>
<!-- 5&#45;&gt;4 -->
<g id="edge4" class="edge">
<title>5&#45;&gt;4</title>
<g id="a_edge4"><a xlink:title="public&#45;inheritance">
<path fill="none" stroke="#1414ce" d="M267,-143.7C267,-135.98 267,-126.71 267,-118.11"/>
<polygon fill="#1414ce" stroke="#1414ce" points="270.5,-118.1 267,-108.1 263.5,-118.1 270.5,-118.1"/>
</a>
</g>
</g>
<!-- 4&#45;&gt;1 -->
<g id="edge5" class="edge">
<title>4&#45;&gt;1</title>
<g id="a_edge5"><a xlink:title="public&#45;inheritance">
<path fill="none" stroke="#1414ce" d="M239.36,-71.88C224.58,-62.72 206.21,-51.34 190.3,-41.48"/>
<polygon fill="#1414ce" stroke="#1414ce" points="192.09,-38.48 181.75,-36.19 188.41,-44.43 192.09,-38.48"/>
</a>
</g>
</g>
</g>
</svg>
