<?xml version="1.0" encoding="UTF-8" standalone="no"?>
<!DOCTYPE svg PUBLIC "-//W3C//DTD SVG 1.1//EN"
 "http://www.w3.org/Graphics/SVG/1.1/DTD/svg11.dtd">
<!-- Generated by graphviz version 3.0.0 (20220226.1711)
 -->
<!-- Title: G Pages: 1 -->
<svg width="938pt" height="460pt"
 viewBox="0.00 0.00 938.00 460.00" xmlns="http://www.w3.org/2000/svg" xmlns:xlink="http://www.w3.org/1999/xlink">
<g id="graph0" class="graph" transform="scale(1 1) rotate(0) translate(4 456)">
<title>G</title>
<polygon fill="white" stroke="transparent" points="-4,4 -4,-456 934,-456 934,4 -4,4"/>
<g id="clust1" class="cluster">
<title>cluster_0</title>
<polygon fill="none" stroke="gray" points="140,-230 140,-444 837,-444 837,-230 140,-230"/>
<text text-anchor="middle" x="214.5" y="-428.8" font-family="Helvetica,Arial,sans-serif" font-size="14.00">frequency = 2048 Hz</text>
</g>
<g id="clust3" class="cluster">
<title>cluster_0_1</title>
<polygon fill="none" stroke="gray" points="162.5,-238 162.5,-342 738,-342 738,-238 162.5,-238"/>
<text text-anchor="middle" x="191.5" y="-326.8" font-family="Helvetica,Arial,sans-serif" font-size="14.00">level 1</text>
</g>
<g id="clust4" class="cluster">
<title>cluster_0_2</title>
<polygon fill="none" stroke="gray" points="759,-257 759,-320 829,-320 829,-257 759,-257"/>
<text text-anchor="middle" x="788" y="-304.8" font-family="Helvetica,Arial,sans-serif" font-size="14.00">level 3</text>
</g>
<g id="clust2" class="cluster">
<title>cluster_0_0</title>
<polygon fill="none" stroke="gray" points="148,-350 148,-413 364.5,-413 364.5,-350 148,-350"/>
<text text-anchor="middle" x="177" y="-397.8" font-family="Helvetica,Arial,sans-serif" font-size="14.00">level 0</text>
</g>
<g id="clust5" class="cluster">
<title>cluster_1</title>
<polygon fill="none" stroke="gray" points="8,-8 8,-222 725.5,-222 725.5,-8 8,-8"/>
<text text-anchor="middle" x="82.5" y="-206.8" font-family="Helvetica,Arial,sans-serif" font-size="14.00">frequency = 4086 Hz</text>
</g>
<g id="clust7" class="cluster">
<title>cluster_1_1</title>
<polygon fill="none" stroke="gray" points="136,-128 136,-191 503,-191 503,-128 136,-128"/>
<text text-anchor="middle" x="165" y="-175.8" font-family="Helvetica,Arial,sans-serif" font-size="14.00">level 1</text>
</g>
<g id="clust8" class="cluster">
<title>cluster_1_2</title>
<polygon fill="none" stroke="gray" points="577.5,-128 577.5,-191 717.5,-191 717.5,-128 577.5,-128"/>
<text text-anchor="middle" x="606.5" y="-175.8" font-family="Helvetica,Arial,sans-serif" font-size="14.00">level 2</text>
</g>
<g id="clust6" class="cluster">
<title>cluster_1_0</title>
<polygon fill="none" stroke="gray" points="16,-16 16,-120 234.5,-120 234.5,-16 16,-16"/>
<text text-anchor="middle" x="45" y="-104.8" font-family="Helvetica,Arial,sans-serif" font-size="14.00">level 0</text>
</g>
<!-- prm_2 -->
<g id="node1" class="node">
<title>prm_2</title>
<polygon fill="lightgrey" stroke="black" stroke-width="0" points="239,-381.5 156,-381.5 156,-358.5 239,-358.5 239,-381.5"/>
<text text-anchor="middle" x="197.5" y="-366.3" font-family="Courier,monospace" font-size="14.00">PRM_2048</text>
</g>
<!-- &gt; -->
<g id="node2" class="node">
<title>&gt;</title>
<polygon fill="lightgrey" stroke="black" stroke-width="0" points="356.5,-381.5 302.5,-381.5 302.5,-358.5 356.5,-358.5 356.5,-381.5"/>
<text text-anchor="middle" x="329.5" y="-366.3" font-family="Courier,monospace" font-size="14.00">&gt;</text>
</g>
<!-- prm_2&#45;&gt;&gt; -->
<g id="edge1" class="edge">
<title>prm_2&#45;&gt;&gt;</title>
<path fill="none" stroke="darkred" d="M239.28,-370C256.13,-370 275.53,-370 291.92,-370"/>
<polygon fill="darkred" stroke="darkred" points="292.2,-373.5 302.2,-370 292.2,-366.5 292.2,-373.5"/>
</g>
<!-- sh_2 -->
<g id="node5" class="node">
<title>sh_2</title>
<polygon fill="lightgrey" stroke="black" stroke-width="0" points="356.5,-269.5 302.5,-269.5 302.5,-246.5 356.5,-246.5 356.5,-269.5"/>
<text text-anchor="middle" x="329.5" y="-254.3" font-family="Courier,monospace" font-size="14.00">[]</text>
</g>
<!-- prm_2&#45;&gt;sh_2 -->
<g id="edge4" class="edge">
<title>prm_2&#45;&gt;sh_2</title>
<path fill="none" stroke="darkred" d="M232.4,-358.37C239.06,-355.06 245.63,-350.97 251,-346 275.95,-322.88 263.63,-302.74 288,-279 289.66,-277.38 291.47,-275.86 293.37,-274.44"/>
<polygon fill="darkred" stroke="darkred" points="295.63,-277.14 302.14,-268.78 291.84,-271.26 295.63,-277.14"/>
</g>
<!-- sh_2_ -->
<g id="node6" class="node">
<title>sh_2_</title>
<polygon fill="lightgrey" stroke="black" stroke-width="0" points="356.5,-310.5 302.5,-310.5 302.5,-287.5 356.5,-287.5 356.5,-310.5"/>
<text text-anchor="middle" x="329.5" y="-295.3" font-family="Courier,monospace" font-size="14.00">[]</text>
</g>
<!-- prm_2&#45;&gt;sh_2_ -->
<g id="edge6" class="edge">
<title>prm_2&#45;&gt;sh_2_</title>
<path fill="none" stroke="darkred" d="M229.03,-358.43C236.53,-354.96 244.31,-350.78 251,-346 260.46,-339.24 259.57,-333.82 269,-327 276.39,-321.65 284.97,-316.92 293.27,-312.93"/>
<polygon fill="darkred" stroke="darkred" points="294.79,-316.08 302.45,-308.75 291.89,-309.71 294.79,-316.08"/>
</g>
<!-- ternary -->
<g id="node8" class="node">
<title>ternary</title>
<polygon fill="lightgrey" stroke="black" stroke-width="0" points="730,-308.5 565,-308.5 565,-285.5 730,-285.5 730,-308.5"/>
<text text-anchor="middle" x="647.5" y="-293.3" font-family="Courier,monospace" font-size="14.00">op 0 ? op 1 : op 2</text>
</g>
<!-- prm_2&#45;&gt;ternary -->
<g id="edge8" class="edge">
<title>prm_2&#45;&gt;ternary</title>
<path fill="none" stroke="darkred" d="M239.34,-360.1C254.56,-356.62 272.01,-352.86 288,-350 402.34,-329.54 432.26,-333.12 547,-315 556.2,-313.55 565.86,-311.92 575.4,-310.26"/>
<polygon fill="darkred" stroke="darkred" points="576.03,-313.7 585.27,-308.52 574.81,-306.81 576.03,-313.7"/>
<text text-anchor="middle" x="406" y="-337.8" font-family="Courier,monospace" font-size="14.00">op 2</text>
</g>
<!-- &gt;&#45;&gt;ternary -->
<g id="edge9" class="edge">
<title>&gt;&#45;&gt;ternary</title>
<path fill="none" stroke="darkred" d="M356.54,-367.76C397.59,-363.81 479.61,-354.26 547,-336 569.11,-330.01 593.04,-320.72 611.89,-312.72"/>
<polygon fill="darkred" stroke="darkred" points="613.46,-315.85 621.25,-308.67 610.68,-309.43 613.46,-315.85"/>
<text text-anchor="middle" x="468" y="-360.8" font-family="Courier,monospace" font-size="14.00">op 0</text>
</g>
<!-- c_20 -->
<g id="node3" class="node">
<title>c_20</title>
<polygon fill="lightgrey" stroke="black" stroke-width="0" points="224.5,-310.5 170.5,-310.5 170.5,-287.5 224.5,-287.5 224.5,-310.5"/>
<text text-anchor="middle" x="197.5" y="-295.3" font-family="Courier,monospace" font-size="14.00">20</text>
</g>
<!-- c_20&#45;&gt;sh_2_ -->
<g id="edge2" class="edge">
<title>c_20&#45;&gt;sh_2_</title>
<path fill="none" stroke="darkred" d="M224.81,-299C244.19,-299 270.79,-299 292.2,-299"/>
<polygon fill="darkred" stroke="darkred" points="292.23,-302.5 302.23,-299 292.23,-295.5 292.23,-302.5"/>
</g>
<!-- c_4 -->
<g id="node4" class="node">
<title>c_4</title>
<polygon fill="lightgrey" stroke="black" stroke-width="0" points="224.5,-269.5 170.5,-269.5 170.5,-246.5 224.5,-246.5 224.5,-269.5"/>
<text text-anchor="middle" x="197.5" y="-254.3" font-family="Courier,monospace" font-size="14.00">&#45;4</text>
</g>
<!-- c_4&#45;&gt;sh_2 -->
<g id="edge3" class="edge">
<title>c_4&#45;&gt;sh_2</title>
<path fill="none" stroke="darkred" d="M224.81,-258C244.19,-258 270.79,-258 292.2,-258"/>
<polygon fill="darkred" stroke="darkred" points="292.23,-261.5 302.23,-258 292.23,-254.5 292.23,-261.5"/>
</g>
<!-- sub_2 -->
<g id="node7" class="node">
<title>sub_2</title>
<polygon fill="lightgrey" stroke="black" stroke-width="0" points="495,-307.5 441,-307.5 441,-284.5 495,-284.5 495,-307.5"/>
<text text-anchor="middle" x="468" y="-292.3" font-family="Courier,monospace" font-size="14.00">&#45;</text>
</g>
<!-- sh_2&#45;&gt;sub_2 -->
<g id="edge5" class="edge">
<title>sh_2&#45;&gt;sub_2</title>
<path fill="none" stroke="darkred" d="M356.82,-265.33C377.87,-271.19 407.62,-279.47 430.9,-285.95"/>
<polygon fill="darkred" stroke="darkred" points="430.19,-289.39 440.76,-288.7 432.07,-282.64 430.19,-289.39"/>
</g>
<!-- sh_2_&#45;&gt;sub_2 -->
<g id="edge7" class="edge">
<title>sh_2_&#45;&gt;sub_2</title>
<path fill="none" stroke="darkred" d="M356.82,-298.42C377.78,-297.96 407.36,-297.31 430.59,-296.8"/>
<polygon fill="darkred" stroke="darkred" points="430.84,-300.3 440.76,-296.58 430.69,-293.3 430.84,-300.3"/>
</g>
<!-- sub_2&#45;&gt;ternary -->
<g id="edge10" class="edge">
<title>sub_2&#45;&gt;ternary</title>
<path fill="none" stroke="darkred" d="M495.19,-296.15C511.25,-296.24 532.86,-296.36 554.72,-296.48"/>
<polygon fill="darkred" stroke="darkred" points="554.74,-299.98 564.76,-296.54 554.78,-292.98 554.74,-299.98"/>
<text text-anchor="middle" x="530" y="-299.8" font-family="Courier,monospace" font-size="14.00">op 1</text>
</g>
<!-- p_2 -->
<g id="node9" class="node">
<title>p_2</title>
<polygon fill="lightgrey" stroke="black" stroke-width="0" points="821,-288.5 767,-288.5 767,-265.5 821,-265.5 821,-288.5"/>
<text text-anchor="middle" x="794" y="-273.3" font-family="Courier,monospace" font-size="14.00">+</text>
</g>
<!-- ternary&#45;&gt;p_2 -->
<g id="edge11" class="edge">
<title>ternary&#45;&gt;p_2</title>
<path fill="none" stroke="darkred" d="M730.04,-285.71C739.4,-284.42 748.55,-283.15 756.85,-282"/>
<polygon fill="darkred" stroke="darkred" points="757.43,-285.46 766.85,-280.62 756.47,-278.52 757.43,-285.46"/>
</g>
<!-- return -->
<g id="node18" class="node">
<title>return</title>
<polygon fill="none" stroke="black" stroke-width="0" points="930,-295 864,-295 864,-259 930,-259 930,-295"/>
<text text-anchor="middle" x="897" y="-273.3" font-family="Courier,monospace" font-size="14.00">return</text>
</g>
<!-- p_2&#45;&gt;return -->
<g id="edge21" class="edge">
<title>p_2&#45;&gt;return</title>
<path fill="none" stroke="darkred" d="M821.01,-277C831.03,-277 842.76,-277 853.91,-277"/>
<polygon fill="darkred" stroke="darkred" points="853.94,-280.5 863.94,-277 853.94,-273.5 853.94,-280.5"/>
</g>
<!-- prm_1 -->
<g id="node10" class="node">
<title>prm_1</title>
<polygon fill="lightgrey" stroke="black" stroke-width="0" points="107,-47.5 24,-47.5 24,-24.5 107,-24.5 107,-47.5"/>
<text text-anchor="middle" x="65.5" y="-32.3" font-family="Courier,monospace" font-size="14.00">PRM_4086</text>
</g>
<!-- p_1 -->
<g id="node11" class="node">
<title>p_1</title>
<polygon fill="lightgrey" stroke="black" stroke-width="0" points="224.5,-88.5 170.5,-88.5 170.5,-65.5 224.5,-65.5 224.5,-88.5"/>
<text text-anchor="middle" x="197.5" y="-73.3" font-family="Courier,monospace" font-size="14.00">+</text>
</g>
<!-- prm_1&#45;&gt;p_1 -->
<g id="edge17" class="edge">
<title>prm_1&#45;&gt;p_1</title>
<path fill="none" stroke="darkred" d="M103.06,-47.53C120.97,-53.18 142.47,-59.96 160.33,-65.59"/>
<polygon fill="darkred" stroke="darkred" points="159.51,-69 170.1,-68.67 161.62,-62.33 159.51,-69"/>
</g>
<!-- cos() -->
<g id="node13" class="node">
<title>cos()</title>
<polygon fill="lightgrey" stroke="black" stroke-width="0" points="226.5,-47.5 168.5,-47.5 168.5,-24.5 226.5,-24.5 226.5,-47.5"/>
<text text-anchor="middle" x="197.5" y="-32.3" font-family="Courier,monospace" font-size="14.00">cos()</text>
</g>
<!-- prm_1&#45;&gt;cos() -->
<g id="edge19" class="edge">
<title>prm_1&#45;&gt;cos()</title>
<path fill="none" stroke="darkred" d="M107.28,-36C123.52,-36 142.13,-36 158.13,-36"/>
<polygon fill="darkred" stroke="darkred" points="158.22,-39.5 168.22,-36 158.22,-32.5 158.22,-39.5"/>
</g>
<!-- c_1 -->
<g id="node15" class="node">
<title>c_1</title>
<polygon fill="lightgrey" stroke="black" stroke-width="0" points="371,-159.5 288,-159.5 288,-136.5 371,-136.5 371,-159.5"/>
<text text-anchor="middle" x="329.5" y="-144.3" font-family="Courier,monospace" font-size="14.00">convolve</text>
</g>
<!-- p_1&#45;&gt;c_1 -->
<g id="edge18" class="edge">
<title>p_1&#45;&gt;c_1</title>
<path fill="none" stroke="darkred" d="M219.68,-88.57C241.02,-100.22 274.16,-118.32 298.26,-131.48"/>
<polygon fill="darkred" stroke="darkred" points="296.88,-134.72 307.33,-136.44 300.23,-128.57 296.88,-134.72"/>
</g>
<!-- 1.0 -->
<g id="node12" class="node">
<title>1.0</title>
<polygon fill="lightgrey" stroke="black" stroke-width="0" points="92.5,-88.5 38.5,-88.5 38.5,-65.5 92.5,-65.5 92.5,-88.5"/>
<text text-anchor="middle" x="65.5" y="-73.3" font-family="Courier,monospace" font-size="14.00">1.0</text>
</g>
<!-- 1.0&#45;&gt;p_1 -->
<g id="edge12" class="edge">
<title>1.0&#45;&gt;p_1</title>
<path fill="none" stroke="darkred" d="M92.81,-77C112.19,-77 138.79,-77 160.2,-77"/>
<polygon fill="darkred" stroke="darkred" points="160.23,-80.5 170.23,-77 160.23,-73.5 160.23,-80.5"/>
</g>
<!-- m_1 -->
<g id="node16" class="node">
<title>m_1</title>
<polygon fill="lightgrey" stroke="black" stroke-width="0" points="495,-159.5 441,-159.5 441,-136.5 495,-136.5 495,-159.5"/>
<text text-anchor="middle" x="468" y="-144.3" font-family="Courier,monospace" font-size="14.00">*</text>
</g>
<!-- cos()&#45;&gt;m_1 -->
<g id="edge20" class="edge">
<title>cos()&#45;&gt;m_1</title>
<path fill="none" stroke="darkred" d="M226.6,-47.13C234.51,-50.29 243.1,-53.76 251,-57 314.73,-83.17 388.64,-114.53 431.39,-132.76"/>
<polygon fill="darkred" stroke="darkred" points="430.23,-136.07 440.8,-136.78 432.97,-129.63 430.23,-136.07"/>
</g>
<!-- small_array -->
<g id="node14" class="node">
<title>small_array</title>
<polygon fill="lightgrey" stroke="black" stroke-width="0" points="251,-159.5 144,-159.5 144,-136.5 251,-136.5 251,-159.5"/>
<text text-anchor="middle" x="197.5" y="-144.3" font-family="Courier,monospace" font-size="14.00">small_array</text>
</g>
<!-- small_array&#45;&gt;c_1 -->
<g id="edge13" class="edge">
<title>small_array&#45;&gt;c_1</title>
<path fill="none" stroke="darkred" d="M251,-148C259.81,-148 268.95,-148 277.71,-148"/>
<polygon fill="darkred" stroke="darkred" points="277.8,-151.5 287.8,-148 277.8,-144.5 277.8,-151.5"/>
</g>
<!-- c_1&#45;&gt;m_1 -->
<g id="edge14" class="edge">
<title>c_1&#45;&gt;m_1</title>
<path fill="none" stroke="darkred" d="M371.08,-148C390.09,-148 412.55,-148 430.95,-148"/>
<polygon fill="darkred" stroke="darkred" points="430.98,-151.5 440.98,-148 430.98,-144.5 430.98,-151.5"/>
</g>
<!-- decim -->
<g id="node17" class="node">
<title>decim</title>
<polygon fill="lightgrey" stroke="black" stroke-width="0" points="709.5,-159.5 585.5,-159.5 585.5,-136.5 709.5,-136.5 709.5,-159.5"/>
<text text-anchor="middle" x="647.5" y="-144.3" font-family="Courier,monospace" font-size="14.00">decimation x2</text>
</g>
<!-- m_1&#45;&gt;decim -->
<g id="edge15" class="edge">
<title>m_1&#45;&gt;decim</title>
<path fill="none" stroke="darkred" d="M495.19,-148C516.23,-148 546.82,-148 575,-148"/>
<polygon fill="darkred" stroke="darkred" points="575.25,-151.5 585.25,-148 575.25,-144.5 575.25,-151.5"/>
</g>
<!-- decim&#45;&gt;p_2 -->
<g id="edge16" class="edge">
<title>decim&#45;&gt;p_2</title>
<path fill="none" stroke="darkred" d="M661.58,-159.68C686.73,-182.12 742,-231.47 772.24,-258.46"/>
<polygon fill="darkred" stroke="darkred" points="770.26,-261.4 780.06,-265.44 774.93,-256.17 770.26,-261.4"/>
</g>
</g>
</svg>
