<?xml version="1.0" encoding="UTF-8" standalone="no"?>
<!DOCTYPE svg PUBLIC "-//W3C//DTD SVG 1.1//EN"
 "http://www.w3.org/Graphics/SVG/1.1/DTD/svg11.dtd">
<!-- Generated by graphviz version 3.0.0 (20220226.1711)
 -->
<!-- Pages: 1 -->
<svg width="246pt" height="116pt"
 viewBox="0.00 0.00 246.00 116.00" xmlns="http://www.w3.org/2000/svg" xmlns:xlink="http://www.w3.org/1999/xlink">
<g id="graph0" class="graph" transform="scale(1 1) rotate(0) translate(4 112)">
<polygon fill="transparent" stroke="transparent" points="-4,4 -4,-112 242,-112 242,4 -4,4"/>
<!-- 1 -->
<g id="node1" class="node">
<title>1</title>
<g id="a_node1"><a xlink:title="DatasetsStorage_ifs">
<polygon fill="#bfbfbf" stroke="black" points="185,-36 57,-36 57,0 185,0 185,-36"/>
<text text-anchor="middle" x="121" y="-14.3" font-family="Times New Roman,serif" font-size="14.00">DatasetsStorage_ifs</text>
</a>
</g>
</g>
<!-- 2 -->
<g id="node2" class="node">
<title>2</title>
<g id="a_node2"><a xlink:title="FolderIoInterface">
<polygon fill="#ffffff" stroke="black" points="114,-108 0,-108 0,-72 114,-72 114,-108"/>
<text text-anchor="middle" x="57" y="-86.3" font-family="Times New Roman,serif" font-size="14.00">FolderIoInterface</text>
</a>
</g>
</g>
<!-- 2&#45;&gt;1 -->
<g id="edge1" class="edge">
<title>2&#45;&gt;1</title>
<g id="a_edge1"><a xlink:title="public&#45;inheritance">
<path fill="none" stroke="#1414ce" d="M72.82,-71.7C80.57,-63.22 90.04,-52.86 98.52,-43.58"/>
<polygon fill="#1414ce" stroke="#1414ce" points="101.2,-45.85 105.36,-36.1 96.03,-41.12 101.2,-45.85"/>
</a>
</g>
</g>
<!-- 3 -->
<g id="node3" class="node">
<title>3</title>
<g id="a_node3"><a xlink:title="Hdf5IoInterface">
<polygon fill="#ffffff" stroke="black" points="238,-108 132,-108 132,-72 238,-72 238,-108"/>
<text text-anchor="middle" x="185" y="-86.3" font-family="Times New Roman,serif" font-size="14.00">Hdf5IoInterface</text>
</a>
</g>
</g>
<!-- 3&#45;&gt;1 -->
<g id="edge2" class="edge">
<title>3&#45;&gt;1</title>
<g id="a_edge2"><a xlink:title="public&#45;inheritance">
<path fill="none" stroke="#1414ce" d="M169.18,-71.7C161.43,-63.22 151.96,-52.86 143.48,-43.58"/>
<polygon fill="#1414ce" stroke="#1414ce" points="145.97,-41.12 136.64,-36.1 140.8,-45.85 145.97,-41.12"/>
</a>
</g>
</g>
</g>
</svg>
