<?xml version="1.0" encoding="UTF-8" standalone="no"?>
<!DOCTYPE svg PUBLIC "-//W3C//DTD SVG 1.1//EN"
 "http://www.w3.org/Graphics/SVG/1.1/DTD/svg11.dtd">
<!-- Generated by graphviz version 3.0.0 (20220226.1711)
 -->
<!-- Title: G Pages: 1 -->
<svg width="658pt" height="581pt"
 viewBox="0.00 0.00 658.00 581.00" xmlns="http://www.w3.org/2000/svg" xmlns:xlink="http://www.w3.org/1999/xlink">
<g id="graph0" class="graph" transform="scale(1 1) rotate(0) translate(4 577)">
<title>G</title>
<polygon fill="white" stroke="transparent" points="-4,4 -4,-577 654,-577 654,4 -4,4"/>
<g id="clust5" class="cluster">
<title>cluster_1</title>
<polygon fill="none" stroke="gray" points="322,-65 322,-565 642,-565 642,-65 322,-65"/>
<text text-anchor="middle" x="396.5" y="-549.8" font-family="Helvetica,Arial,sans-serif" font-size="14.00">frequency = 4086 Hz</text>
</g>
<g id="clust7" class="cluster">
<title>cluster_1_1</title>
<polygon fill="none" stroke="gray" points="510,-226 510,-422 634,-422 634,-226 510,-226"/>
<text text-anchor="middle" x="539" y="-406.8" font-family="Helvetica,Arial,sans-serif" font-size="14.00">level 1</text>
</g>
<g id="clust6" class="cluster">
<title>cluster_1_0</title>
<polygon fill="none" stroke="gray" points="330,-360 330,-534 502,-534 502,-360 330,-360"/>
<text text-anchor="middle" x="359" y="-518.8" font-family="Helvetica,Arial,sans-serif" font-size="14.00">level 0</text>
</g>
<g id="clust8" class="cluster">
<title>cluster_1_2</title>
<polygon fill="none" stroke="gray" points="402,-131 402,-193 542,-193 542,-131 402,-131"/>
<text text-anchor="middle" x="431" y="-177.8" font-family="Helvetica,Arial,sans-serif" font-size="14.00">level 2</text>
</g>
<g id="clust1" class="cluster">
<title>cluster_0</title>
<polygon fill="none" stroke="gray" points="8,-123 8,-453 314,-453 314,-123 8,-123"/>
<text text-anchor="middle" x="82.5" y="-437.8" font-family="Helvetica,Arial,sans-serif" font-size="14.00">frequency = 2048 Hz</text>
</g>
<g id="clust2" class="cluster">
<title>cluster_0_0</title>
<polygon fill="none" stroke="gray" points="206,-300 206,-422 306,-422 306,-300 206,-300"/>
<text text-anchor="middle" x="235" y="-406.8" font-family="Helvetica,Arial,sans-serif" font-size="14.00">level 0</text>
</g>
<g id="clust3" class="cluster">
<title>cluster_0_1</title>
<polygon fill="none" stroke="gray" points="16,-131 16,-422 198,-422 198,-131 16,-131"/>
<text text-anchor="middle" x="45" y="-406.8" font-family="Helvetica,Arial,sans-serif" font-size="14.00">level 1</text>
</g>
<!-- prm_2 -->
<g id="node1" class="node">
<title>prm_2</title>
<polygon fill="lightgrey" stroke="black" stroke-width="0" points="297.5,-391 214.5,-391 214.5,-368 297.5,-368 297.5,-391"/>
<text text-anchor="middle" x="256" y="-375.8" font-family="Courier,monospace" font-size="14.00">PRM_2048</text>
</g>
<!-- &gt; -->
<g id="node2" class="node">
<title>&gt;</title>
<polygon fill="lightgrey" stroke="black" stroke-width="0" points="282,-331 228,-331 228,-308 282,-308 282,-331"/>
<text text-anchor="middle" x="255" y="-315.8" font-family="Courier,monospace" font-size="14.00">&gt;</text>
</g>
<!-- prm_2&#45;&gt;&gt; -->
<g id="edge1" class="edge">
<title>prm_2&#45;&gt;&gt;</title>
<path fill="none" stroke="darkred" d="M255.82,-367.86C255.69,-360.42 255.51,-350.24 255.36,-341.23"/>
<polygon fill="darkred" stroke="darkred" points="258.85,-341.01 255.18,-331.07 251.86,-341.13 258.85,-341.01"/>
</g>
<!-- sh_2 -->
<g id="node5" class="node">
<title>sh_2</title>
<polygon fill="lightgrey" stroke="black" stroke-width="0" points="118,-331 64,-331 64,-308 118,-308 118,-331"/>
<text text-anchor="middle" x="91" y="-315.8" font-family="Courier,monospace" font-size="14.00">[]</text>
</g>
<!-- prm_2&#45;&gt;sh_2 -->
<g id="edge4" class="edge">
<title>prm_2&#45;&gt;sh_2</title>
<path fill="none" stroke="darkred" d="M226.12,-368C198.5,-358.29 157.38,-343.83 127.76,-333.42"/>
<polygon fill="darkred" stroke="darkred" points="128.79,-330.07 118.2,-330.06 126.47,-336.68 128.79,-330.07"/>
</g>
<!-- sh_2_ -->
<g id="node6" class="node">
<title>sh_2_</title>
<polygon fill="lightgrey" stroke="black" stroke-width="0" points="190,-331 136,-331 136,-308 190,-308 190,-331"/>
<text text-anchor="middle" x="163" y="-315.8" font-family="Courier,monospace" font-size="14.00">[]</text>
</g>
<!-- prm_2&#45;&gt;sh_2_ -->
<g id="edge6" class="edge">
<title>prm_2&#45;&gt;sh_2_</title>
<path fill="none" stroke="darkred" d="M235.42,-367.97C225.73,-362.82 214.1,-356.37 204,-350 197.72,-346.04 191.11,-341.47 185.08,-337.13"/>
<polygon fill="darkred" stroke="darkred" points="186.89,-334.12 176.75,-331.04 182.75,-339.77 186.89,-334.12"/>
</g>
<!-- ternary -->
<g id="node8" class="node">
<title>ternary</title>
<polygon fill="lightgrey" stroke="black" stroke-width="0" points="189.5,-162 24.5,-162 24.5,-139 189.5,-139 189.5,-162"/>
<text text-anchor="middle" x="107" y="-146.8" font-family="Courier,monospace" font-size="14.00">op 0 ? op 1 : op 2</text>
</g>
<!-- prm_2&#45;&gt;ternary -->
<g id="edge8" class="edge">
<title>prm_2&#45;&gt;ternary</title>
<path fill="none" stroke="darkred" d="M247.02,-367.89C239.22,-358.48 227.83,-344.21 219,-331 182.03,-275.74 181.77,-256.39 145,-201 138.01,-190.47 129.49,-179.25 122.3,-170.16"/>
<polygon fill="darkred" stroke="darkred" points="124.89,-167.8 115.9,-162.19 119.43,-172.18 124.89,-167.8"/>
<text text-anchor="middle" x="212" y="-278.8" font-family="Courier,monospace" font-size="14.00">op 2</text>
</g>
<!-- &gt;&#45;&gt;ternary -->
<g id="edge9" class="edge">
<title>&gt;&#45;&gt;ternary</title>
<path fill="none" stroke="darkred" d="M254.27,-307.83C252.14,-285.09 244.04,-231.46 214,-201 198.07,-184.84 175.87,-173.4 155.82,-165.61"/>
<polygon fill="darkred" stroke="darkred" points="156.78,-162.24 146.18,-162.08 154.37,-168.81 156.78,-162.24"/>
<text text-anchor="middle" x="262" y="-241.8" font-family="Courier,monospace" font-size="14.00">op 0</text>
</g>
<!-- c_20 -->
<g id="node3" class="node">
<title>c_20</title>
<polygon fill="lightgrey" stroke="black" stroke-width="0" points="190,-391 136,-391 136,-368 190,-368 190,-391"/>
<text text-anchor="middle" x="163" y="-375.8" font-family="Courier,monospace" font-size="14.00">20</text>
</g>
<!-- c_20&#45;&gt;sh_2_ -->
<g id="edge2" class="edge">
<title>c_20&#45;&gt;sh_2_</title>
<path fill="none" stroke="darkred" d="M163,-367.86C163,-360.42 163,-350.24 163,-341.23"/>
<polygon fill="darkred" stroke="darkred" points="166.5,-341.07 163,-331.07 159.5,-341.07 166.5,-341.07"/>
</g>
<!-- c_4 -->
<g id="node4" class="node">
<title>c_4</title>
<polygon fill="lightgrey" stroke="black" stroke-width="0" points="118,-391 64,-391 64,-368 118,-368 118,-391"/>
<text text-anchor="middle" x="91" y="-375.8" font-family="Courier,monospace" font-size="14.00">&#45;4</text>
</g>
<!-- c_4&#45;&gt;sh_2 -->
<g id="edge3" class="edge">
<title>c_4&#45;&gt;sh_2</title>
<path fill="none" stroke="darkred" d="M91,-367.86C91,-360.42 91,-350.24 91,-341.23"/>
<polygon fill="darkred" stroke="darkred" points="94.5,-341.07 91,-331.07 87.5,-341.07 94.5,-341.07"/>
</g>
<!-- sub_2 -->
<g id="node7" class="node">
<title>sub_2</title>
<polygon fill="lightgrey" stroke="black" stroke-width="0" points="134,-257 80,-257 80,-234 134,-234 134,-257"/>
<text text-anchor="middle" x="107" y="-241.8" font-family="Courier,monospace" font-size="14.00">&#45;</text>
</g>
<!-- sh_2&#45;&gt;sub_2 -->
<g id="edge5" class="edge">
<title>sh_2&#45;&gt;sub_2</title>
<path fill="none" stroke="darkred" d="M93.36,-307.88C95.72,-297.24 99.42,-280.59 102.37,-267.32"/>
<polygon fill="darkred" stroke="darkred" points="105.88,-267.69 104.63,-257.17 99.04,-266.17 105.88,-267.69"/>
</g>
<!-- sh_2_&#45;&gt;sub_2 -->
<g id="edge7" class="edge">
<title>sh_2_&#45;&gt;sub_2</title>
<path fill="none" stroke="darkred" d="M154.74,-307.88C146.05,-296.71 132.21,-278.91 121.66,-265.35"/>
<polygon fill="darkred" stroke="darkred" points="124.2,-262.91 115.3,-257.17 118.67,-267.21 124.2,-262.91"/>
</g>
<!-- sub_2&#45;&gt;ternary -->
<g id="edge10" class="edge">
<title>sub_2&#45;&gt;ternary</title>
<path fill="none" stroke="darkred" d="M107,-233.83C107,-218.84 107,-191.22 107,-172.14"/>
<polygon fill="darkred" stroke="darkred" points="110.5,-172.04 107,-162.04 103.5,-172.04 110.5,-172.04"/>
<text text-anchor="middle" x="124" y="-204.8" font-family="Courier,monospace" font-size="14.00">op 1</text>
</g>
<!-- p_2 -->
<g id="node9" class="node">
<title>p_2</title>
<polygon fill="lightgrey" stroke="black" stroke-width="0" points="405,-96 351,-96 351,-73 405,-73 405,-96"/>
<text text-anchor="middle" x="378" y="-80.8" font-family="Courier,monospace" font-size="14.00">+</text>
</g>
<!-- ternary&#45;&gt;p_2 -->
<g id="edge11" class="edge">
<title>ternary&#45;&gt;p_2</title>
<path fill="none" stroke="darkred" d="M151.75,-138.93C204.66,-126.44 291.74,-105.87 341.01,-94.23"/>
<polygon fill="darkred" stroke="darkred" points="342,-97.6 350.93,-91.89 340.39,-90.79 342,-97.6"/>
</g>
<!-- return -->
<g id="node18" class="node">
<title>return</title>
<polygon fill="none" stroke="black" stroke-width="0" points="411,-36 345,-36 345,0 411,0 411,-36"/>
<text text-anchor="middle" x="378" y="-14.3" font-family="Courier,monospace" font-size="14.00">return</text>
</g>
<!-- p_2&#45;&gt;return -->
<g id="edge21" class="edge">
<title>p_2&#45;&gt;return</title>
<path fill="none" stroke="darkred" d="M378,-72.85C378,-65.62 378,-55.72 378,-46.37"/>
<polygon fill="darkred" stroke="darkred" points="381.5,-46.23 378,-36.23 374.5,-46.23 381.5,-46.23"/>
</g>
<!-- prm_1 -->
<g id="node10" class="node">
<title>prm_1</title>
<polygon fill="lightgrey" stroke="black" stroke-width="0" points="421.5,-503 338.5,-503 338.5,-480 421.5,-480 421.5,-503"/>
<text text-anchor="middle" x="380" y="-487.8" font-family="Courier,monospace" font-size="14.00">PRM_4086</text>
</g>
<!-- p_1 -->
<g id="node11" class="node">
<title>p_1</title>
<polygon fill="lightgrey" stroke="black" stroke-width="0" points="494,-391 440,-391 440,-368 494,-368 494,-391"/>
<text text-anchor="middle" x="467" y="-375.8" font-family="Courier,monospace" font-size="14.00">+</text>
</g>
<!-- prm_1&#45;&gt;p_1 -->
<g id="edge17" class="edge">
<title>prm_1&#45;&gt;p_1</title>
<path fill="none" stroke="darkred" d="M395.35,-479.85C404.65,-472.91 416.35,-463.26 425,-453 438.69,-436.76 450.43,-415.46 457.99,-400.16"/>
<polygon fill="darkred" stroke="darkred" points="461.17,-401.61 462.33,-391.08 454.86,-398.59 461.17,-401.61"/>
</g>
<!-- cos() -->
<g id="node13" class="node">
<title>cos()</title>
<polygon fill="lightgrey" stroke="black" stroke-width="0" points="416,-391 358,-391 358,-368 416,-368 416,-391"/>
<text text-anchor="middle" x="387" y="-375.8" font-family="Courier,monospace" font-size="14.00">cos()</text>
</g>
<!-- prm_1&#45;&gt;cos() -->
<g id="edge19" class="edge">
<title>prm_1&#45;&gt;cos()</title>
<path fill="none" stroke="darkred" d="M380.67,-479.95C381.82,-461.93 384.18,-424.89 385.67,-401.45"/>
<polygon fill="darkred" stroke="darkred" points="389.18,-401.38 386.32,-391.18 382.19,-400.93 389.18,-401.38"/>
</g>
<!-- c_1 -->
<g id="node15" class="node">
<title>c_1</title>
<polygon fill="lightgrey" stroke="black" stroke-width="0" points="601.5,-331 518.5,-331 518.5,-308 601.5,-308 601.5,-331"/>
<text text-anchor="middle" x="560" y="-315.8" font-family="Courier,monospace" font-size="14.00">convolve</text>
</g>
<!-- p_1&#45;&gt;c_1 -->
<g id="edge18" class="edge">
<title>p_1&#45;&gt;c_1</title>
<path fill="none" stroke="darkred" d="M484.06,-367.86C498.08,-359.11 518.18,-346.58 534.18,-336.6"/>
<polygon fill="darkred" stroke="darkred" points="536.42,-339.33 543.05,-331.07 532.71,-333.39 536.42,-339.33"/>
</g>
<!-- 1.0 -->
<g id="node12" class="node">
<title>1.0</title>
<polygon fill="lightgrey" stroke="black" stroke-width="0" points="494,-503 440,-503 440,-480 494,-480 494,-503"/>
<text text-anchor="middle" x="467" y="-487.8" font-family="Courier,monospace" font-size="14.00">1.0</text>
</g>
<!-- 1.0&#45;&gt;p_1 -->
<g id="edge12" class="edge">
<title>1.0&#45;&gt;p_1</title>
<path fill="none" stroke="darkred" d="M467,-479.95C467,-461.93 467,-424.89 467,-401.45"/>
<polygon fill="darkred" stroke="darkred" points="470.5,-401.18 467,-391.18 463.5,-401.18 470.5,-401.18"/>
</g>
<!-- m_1 -->
<g id="node16" class="node">
<title>m_1</title>
<polygon fill="lightgrey" stroke="black" stroke-width="0" points="572,-257 518,-257 518,-234 572,-234 572,-257"/>
<text text-anchor="middle" x="545" y="-241.8" font-family="Courier,monospace" font-size="14.00">*</text>
</g>
<!-- cos()&#45;&gt;m_1 -->
<g id="edge20" class="edge">
<title>cos()&#45;&gt;m_1</title>
<path fill="none" stroke="darkred" d="M399.66,-367.92C426.94,-345.14 491.43,-291.25 524.57,-263.57"/>
<polygon fill="darkred" stroke="darkred" points="526.85,-266.23 532.28,-257.13 522.36,-260.85 526.85,-266.23"/>
</g>
<!-- small_array -->
<g id="node14" class="node">
<title>small_array</title>
<polygon fill="lightgrey" stroke="black" stroke-width="0" points="625.5,-391 518.5,-391 518.5,-368 625.5,-368 625.5,-391"/>
<text text-anchor="middle" x="572" y="-375.8" font-family="Courier,monospace" font-size="14.00">small_array</text>
</g>
<!-- small_array&#45;&gt;c_1 -->
<g id="edge13" class="edge">
<title>small_array&#45;&gt;c_1</title>
<path fill="none" stroke="darkred" d="M569.8,-367.86C568.24,-360.34 566.11,-350.02 564.23,-340.93"/>
<polygon fill="darkred" stroke="darkred" points="567.64,-340.15 562.19,-331.07 560.79,-341.57 567.64,-340.15"/>
</g>
<!-- c_1&#45;&gt;m_1 -->
<g id="edge14" class="edge">
<title>c_1&#45;&gt;m_1</title>
<path fill="none" stroke="darkred" d="M557.79,-307.88C555.57,-297.24 552.1,-280.59 549.34,-267.32"/>
<polygon fill="darkred" stroke="darkred" points="552.69,-266.24 547.22,-257.17 545.84,-267.67 552.69,-266.24"/>
</g>
<!-- decim -->
<g id="node17" class="node">
<title>decim</title>
<polygon fill="lightgrey" stroke="black" stroke-width="0" points="534,-162 410,-162 410,-139 534,-139 534,-162"/>
<text text-anchor="middle" x="472" y="-146.8" font-family="Courier,monospace" font-size="14.00">decimation x2</text>
</g>
<!-- m_1&#45;&gt;decim -->
<g id="edge15" class="edge">
<title>m_1&#45;&gt;decim</title>
<path fill="none" stroke="darkred" d="M536.63,-233.83C524.41,-218.27 501.55,-189.14 486.55,-170.03"/>
<polygon fill="darkred" stroke="darkred" points="489.2,-167.75 480.28,-162.04 483.7,-172.07 489.2,-167.75"/>
</g>
<!-- decim&#45;&gt;p_2 -->
<g id="edge16" class="edge">
<title>decim&#45;&gt;p_2</title>
<path fill="none" stroke="darkred" d="M456.48,-138.93C441.65,-128.83 419.08,-113.47 401.94,-101.8"/>
<polygon fill="darkred" stroke="darkred" points="403.78,-98.82 393.55,-96.08 399.84,-104.61 403.78,-98.82"/>
</g>
</g>
</svg>
