<?xml version="1.0" encoding="UTF-8" standalone="no"?>
<!DOCTYPE svg PUBLIC "-//W3C//DTD SVG 1.1//EN"
 "http://www.w3.org/Graphics/SVG/1.1/DTD/svg11.dtd">
<!-- Generated by graphviz version 3.0.0 (20220226.1711)
 -->
<!-- Pages: 1 -->
<svg width="236pt" height="116pt"
 viewBox="0.00 0.00 235.50 116.00" xmlns="http://www.w3.org/2000/svg" xmlns:xlink="http://www.w3.org/1999/xlink">
<g id="graph0" class="graph" transform="scale(1 1) rotate(0) translate(4 112)">
<polygon fill="transparent" stroke="transparent" points="-4,4 -4,-112 231.5,-112 231.5,4 -4,4"/>
<!-- 2 -->
<g id="node1" class="node">
<title>2</title>
<g id="a_node1"><a xlink:title="AsyncParameter">
<polygon fill="#ffffff" stroke="black" points="108,-108 0,-108 0,-72 108,-72 108,-108"/>
<text text-anchor="middle" x="54" y="-86.3" font-family="Times New Roman,serif" font-size="14.00">AsyncParameter</text>
</a>
</g>
</g>
<!-- 1 -->
<g id="node2" class="node">
<title>1</title>
<g id="a_node2"><a xlink:title="ParameterIfs">
<polygon fill="#bfbfbf" stroke="black" points="158.5,-36 71.5,-36 71.5,0 158.5,0 158.5,-36"/>
<text text-anchor="middle" x="115" y="-14.3" font-family="Times New Roman,serif" font-size="14.00">ParameterIfs</text>
</a>
</g>
</g>
<!-- 2&#45;&gt;1 -->
<g id="edge1" class="edge">
<title>2&#45;&gt;1</title>
<g id="a_edge1"><a xlink:title="public&#45;inheritance">
<path fill="none" stroke="#1414ce" d="M69.08,-71.7C76.39,-63.3 85.31,-53.07 93.34,-43.86"/>
<polygon fill="#1414ce" stroke="#1414ce" points="96.16,-45.94 100.09,-36.1 90.89,-41.34 96.16,-45.94"/>
</a>
</g>
</g>
<!-- 3 -->
<g id="node3" class="node">
<title>3</title>
<g id="a_node3"><a xlink:title="SyncParameter">
<polygon fill="#ffffff" stroke="black" points="227.5,-108 126.5,-108 126.5,-72 227.5,-72 227.5,-108"/>
<text text-anchor="middle" x="177" y="-86.3" font-family="Times New Roman,serif" font-size="14.00">SyncParameter</text>
</a>
</g>
</g>
<!-- 3&#45;&gt;1 -->
<g id="edge2" class="edge">
<title>3&#45;&gt;1</title>
<g id="a_edge2"><a xlink:title="public&#45;inheritance">
<path fill="none" stroke="#1414ce" d="M161.67,-71.7C154.24,-63.3 145.18,-53.07 137.02,-43.86"/>
<polygon fill="#1414ce" stroke="#1414ce" points="139.4,-41.27 130.15,-36.1 134.16,-45.91 139.4,-41.27"/>
</a>
</g>
</g>
</g>
</svg>
