<?xml version="1.0" encoding="UTF-8" standalone="no"?>
<!DOCTYPE svg PUBLIC "-//W3C//DTD SVG 1.1//EN"
 "http://www.w3.org/Graphics/SVG/1.1/DTD/svg11.dtd">
<!-- Generated by graphviz version 3.0.0 (20220226.1711)
 -->
<!-- Pages: 1 -->
<svg width="692pt" height="332pt"
 viewBox="0.00 0.00 692.00 332.00" xmlns="http://www.w3.org/2000/svg" xmlns:xlink="http://www.w3.org/1999/xlink">
<g id="graph0" class="graph" transform="scale(1 1) rotate(0) translate(4 328)">
<polygon fill="transparent" stroke="transparent" points="-4,4 -4,-328 688,-328 688,4 -4,4"/>
<!-- 4 -->
<g id="node1" class="node">
<title>4</title>
<g id="a_node1"><a xlink:title="CallRecursiveFunctionTemplate">
<polygon fill="#ffffff" stroke="black" points="195,-252 0,-252 0,-216 195,-216 195,-252"/>
<text text-anchor="middle" x="97.5" y="-230.3" font-family="Times New Roman,serif" font-size="14.00">CallRecursiveFunctionTemplate</text>
</a>
</g>
</g>
<!-- 3 -->
<g id="node3" class="node">
<title>3</title>
<g id="a_node3"><a xlink:title="CallTemplate_ifs">
<polygon fill="#ffffff" stroke="black" points="349,-180 238,-180 238,-144 349,-144 349,-180"/>
<text text-anchor="middle" x="293.5" y="-158.3" font-family="Times New Roman,serif" font-size="14.00">CallTemplate_ifs</text>
</a>
</g>
</g>
<!-- 4&#45;&gt;3 -->
<g id="edge1" class="edge">
<title>4&#45;&gt;3</title>
<g id="a_edge1"><a xlink:title="public&#45;inheritance">
<path fill="none" stroke="#1414ce" d="M145.2,-215.97C172.58,-206.19 207.16,-193.84 236.03,-183.52"/>
<polygon fill="#1414ce" stroke="#1414ce" points="237.35,-186.77 245.59,-180.11 235,-180.18 237.35,-186.77"/>
</a>
</g>
</g>
<!-- 5 -->
<g id="node2" class="node">
<title>5</title>
<g id="a_node2"><a xlink:title="CallTemplate">
<polygon fill="#ffffff" stroke="black" points="303.5,-252 213.5,-252 213.5,-216 303.5,-216 303.5,-252"/>
<text text-anchor="middle" x="258.5" y="-230.3" font-family="Times New Roman,serif" font-size="14.00">CallTemplate</text>
</a>
</g>
</g>
<!-- 5&#45;&gt;3 -->
<g id="edge2" class="edge">
<title>5&#45;&gt;3</title>
<g id="a_edge2"><a xlink:title="public&#45;inheritance">
<path fill="none" stroke="#1414ce" d="M267.15,-215.7C271.14,-207.73 275.95,-198.1 280.37,-189.26"/>
<polygon fill="#1414ce" stroke="#1414ce" points="283.61,-190.61 284.95,-180.1 277.35,-187.48 283.61,-190.61"/>
</a>
</g>
</g>
<!-- 1 -->
<g id="node9" class="node">
<title>1</title>
<g id="a_node9"><a xlink:title="ExValue_ifs">
<polygon fill="#bfbfbf" stroke="black" points="538.5,-108 454.5,-108 454.5,-72 538.5,-72 538.5,-108"/>
<text text-anchor="middle" x="496.5" y="-86.3" font-family="Times New Roman,serif" font-size="14.00">ExValue_ifs</text>
</a>
</g>
</g>
<!-- 3&#45;&gt;1 -->
<g id="edge3" class="edge">
<title>3&#45;&gt;1</title>
<g id="a_edge3"><a xlink:title="public&#45;inheritance">
<path fill="none" stroke="#1414ce" d="M342.9,-143.97C373.72,-133.34 413.32,-119.68 444.6,-108.9"/>
<polygon fill="#1414ce" stroke="#1414ce" points="446.13,-112.07 454.44,-105.5 443.85,-105.45 446.13,-112.07"/>
</a>
</g>
</g>
<!-- 9 -->
<g id="node4" class="node">
<title>9</title>
<g id="a_node4"><a xlink:title="ExArgument">
<polygon fill="#ffffff" stroke="black" points="587.5,-252 501.5,-252 501.5,-216 587.5,-216 587.5,-252"/>
<text text-anchor="middle" x="544.5" y="-230.3" font-family="Times New Roman,serif" font-size="14.00">ExArgument</text>
</a>
</g>
</g>
<!-- 8 -->
<g id="node6" class="node">
<title>8</title>
<g id="a_node6"><a xlink:title="ExLine">
<polygon fill="#ffffff" stroke="black" points="572.5,-180 516.5,-180 516.5,-144 572.5,-144 572.5,-180"/>
<text text-anchor="middle" x="544.5" y="-158.3" font-family="Times New Roman,serif" font-size="14.00">ExLine</text>
</a>
</g>
</g>
<!-- 9&#45;&gt;8 -->
<g id="edge4" class="edge">
<title>9&#45;&gt;8</title>
<g id="a_edge4"><a xlink:title="public&#45;inheritance">
<path fill="none" stroke="#1414ce" d="M544.5,-215.7C544.5,-207.98 544.5,-198.71 544.5,-190.11"/>
<polygon fill="#1414ce" stroke="#1414ce" points="548,-190.1 544.5,-180.1 541,-190.1 548,-190.1"/>
</a>
</g>
</g>
<!-- 7 -->
<g id="node5" class="node">
<title>7</title>
<g id="a_node5"><a xlink:title="ExConstValue">
<polygon fill="#ffffff" stroke="black" points="498,-180 401,-180 401,-144 498,-144 498,-180"/>
<text text-anchor="middle" x="449.5" y="-158.3" font-family="Times New Roman,serif" font-size="14.00">ExConstValue</text>
</a>
</g>
</g>
<!-- 7&#45;&gt;1 -->
<g id="edge5" class="edge">
<title>7&#45;&gt;1</title>
<g id="a_edge5"><a xlink:title="public&#45;inheritance">
<path fill="none" stroke="#1414ce" d="M461.12,-143.7C466.64,-135.47 473.35,-125.48 479.43,-116.42"/>
<polygon fill="#1414ce" stroke="#1414ce" points="482.35,-118.36 485.02,-108.1 476.54,-114.46 482.35,-118.36"/>
</a>
</g>
</g>
<!-- 8&#45;&gt;1 -->
<g id="edge6" class="edge">
<title>8&#45;&gt;1</title>
<g id="a_edge6"><a xlink:title="public&#45;inheritance">
<path fill="none" stroke="#1414ce" d="M532.63,-143.7C527,-135.47 520.15,-125.48 513.93,-116.42"/>
<polygon fill="#1414ce" stroke="#1414ce" points="516.77,-114.37 508.23,-108.1 511,-118.33 516.77,-114.37"/>
</a>
</g>
</g>
<!-- 11 -->
<g id="node7" class="node">
<title>11</title>
<g id="a_node7"><a xlink:title="ExParam">
<polygon fill="#ffffff" stroke="black" points="673,-252 606,-252 606,-216 673,-216 673,-252"/>
<text text-anchor="middle" x="639.5" y="-230.3" font-family="Times New Roman,serif" font-size="14.00">ExParam</text>
</a>
</g>
</g>
<!-- 11&#45;&gt;8 -->
<g id="edge7" class="edge">
<title>11&#45;&gt;8</title>
<g id="a_edge7"><a xlink:title="public&#45;inheritance">
<path fill="none" stroke="#1414ce" d="M616.02,-215.7C603.94,-206.8 589.05,-195.82 575.98,-186.2"/>
<polygon fill="#1414ce" stroke="#1414ce" points="577.84,-183.22 567.71,-180.1 573.69,-188.85 577.84,-183.22"/>
</a>
</g>
</g>
<!-- 10 -->
<g id="node8" class="node">
<title>10</title>
<g id="a_node8"><a xlink:title="ExRecursiveArgument">
<polygon fill="#ffffff" stroke="black" points="615.5,-324 473.5,-324 473.5,-288 615.5,-288 615.5,-324"/>
<text text-anchor="middle" x="544.5" y="-302.3" font-family="Times New Roman,serif" font-size="14.00">ExRecursiveArgument</text>
</a>
</g>
</g>
<!-- 10&#45;&gt;9 -->
<g id="edge8" class="edge">
<title>10&#45;&gt;9</title>
<g id="a_edge8"><a xlink:title="public&#45;inheritance">
<path fill="none" stroke="#1414ce" d="M544.5,-287.7C544.5,-279.98 544.5,-270.71 544.5,-262.11"/>
<polygon fill="#1414ce" stroke="#1414ce" points="548,-262.1 544.5,-252.1 541,-262.1 548,-262.1"/>
</a>
</g>
</g>
<!-- 2 -->
<g id="node11" class="node">
<title>2</title>
<g id="a_node11"><a xlink:title="SmallArr">
<polygon fill="#ffffff" stroke="black" points="529.5,-36 463.5,-36 463.5,0 529.5,0 529.5,-36"/>
<text text-anchor="middle" x="496.5" y="-14.3" font-family="Times New Roman,serif" font-size="14.00">SmallArr</text>
</a>
</g>
</g>
<!-- 1&#45;&gt;2 -->
<g id="edge9" class="edge">
<title>1&#45;&gt;2</title>
<g id="a_edge9"><a xlink:title="public&#45;inheritance">
<path fill="none" stroke="#1414ce" d="M496.5,-71.7C496.5,-63.98 496.5,-54.71 496.5,-46.11"/>
<polygon fill="#1414ce" stroke="#1414ce" points="500,-46.1 496.5,-36.1 493,-46.1 500,-46.1"/>
</a>
</g>
</g>
<!-- 12 -->
<g id="node10" class="node">
<title>12</title>
<g id="a_node10"><a xlink:title="Operation_ifs">
<polygon fill="#ffffff" stroke="black" points="684,-180 591,-180 591,-144 684,-144 684,-180"/>
<text text-anchor="middle" x="637.5" y="-158.3" font-family="Times New Roman,serif" font-size="14.00">Operation_ifs</text>
</a>
</g>
</g>
<!-- 12&#45;&gt;1 -->
<g id="edge10" class="edge">
<title>12&#45;&gt;1</title>
<g id="a_edge10"><a xlink:title="public&#45;inheritance">
<path fill="none" stroke="#1414ce" d="M603.01,-143.88C584.06,-134.47 560.37,-122.71 540.14,-112.67"/>
<polygon fill="#1414ce" stroke="#1414ce" points="541.64,-109.5 531.13,-108.19 538.53,-115.77 541.64,-109.5"/>
</a>
</g>
</g>
<!-- 6 -->
<g id="node12" class="node">
<title>6</title>
<g id="a_node12"><a xlink:title="TailCallDirectiveTemplate">
<polygon fill="#ffffff" stroke="black" points="483,-252 322,-252 322,-216 483,-216 483,-252"/>
<text text-anchor="middle" x="402.5" y="-230.3" font-family="Times New Roman,serif" font-size="14.00">TailCallDirectiveTemplate</text>
</a>
</g>
</g>
<!-- 6&#45;&gt;3 -->
<g id="edge11" class="edge">
<title>6&#45;&gt;3</title>
<g id="a_edge11"><a xlink:title="public&#45;inheritance">
<path fill="none" stroke="#1414ce" d="M375.84,-215.88C361.72,-206.81 344.19,-195.55 328.94,-185.76"/>
<polygon fill="#1414ce" stroke="#1414ce" points="330.57,-182.65 320.27,-180.19 326.79,-188.54 330.57,-182.65"/>
</a>
</g>
</g>
</g>
</svg>
