<?xml version="1.0" encoding="UTF-8" standalone="no"?>
<!DOCTYPE svg PUBLIC "-//W3C//DTD SVG 1.1//EN"
 "http://www.w3.org/Graphics/SVG/1.1/DTD/svg11.dtd">
<!-- Generated by graphviz version 3.0.0 (20220226.1711)
 -->
<!-- Title: G Pages: 1 -->
<svg width="658pt" height="626pt"
 viewBox="0.00 0.00 658.00 626.00" xmlns="http://www.w3.org/2000/svg" xmlns:xlink="http://www.w3.org/1999/xlink">
<g id="graph0" class="graph" transform="scale(1 1) rotate(0) translate(4 622)">
<title>G</title>
<polygon fill="white" stroke="transparent" points="-4,4 -4,-622 654,-622 654,4 -4,4"/>
<g id="clust1" class="cluster">
<title>cluster_0</title>
<polygon fill="none" stroke="gray" points="8,-8 8,-498 314,-498 314,-8 8,-8"/>
<text text-anchor="middle" x="82.5" y="-482.8" font-family="Helvetica,Arial,sans-serif" font-size="14.00">frequency = 2048 Hz</text>
</g>
<g id="clust2" class="cluster">
<title>cluster_0_0</title>
<polygon fill="none" stroke="gray" points="206,-345 206,-467 306,-467 306,-345 206,-345"/>
<text text-anchor="middle" x="235" y="-451.8" font-family="Helvetica,Arial,sans-serif" font-size="14.00">level 0</text>
</g>
<g id="clust3" class="cluster">
<title>cluster_0_1</title>
<polygon fill="none" stroke="gray" points="16,-176 16,-467 198,-467 198,-176 16,-176"/>
<text text-anchor="middle" x="45" y="-451.8" font-family="Helvetica,Arial,sans-serif" font-size="14.00">level 1</text>
</g>
<g id="clust4" class="cluster">
<title>cluster_0_2</title>
<polygon fill="none" stroke="gray" points="145,-16 145,-151 227,-151 227,-16 145,-16"/>
<text text-anchor="middle" x="174" y="-135.8" font-family="Helvetica,Arial,sans-serif" font-size="14.00">level 3</text>
</g>
<g id="clust5" class="cluster">
<title>cluster_1</title>
<polygon fill="none" stroke="gray" points="322,-168 322,-610 642,-610 642,-168 322,-168"/>
<text text-anchor="middle" x="396.5" y="-594.8" font-family="Helvetica,Arial,sans-serif" font-size="14.00">frequency = 4086 Hz</text>
</g>
<g id="clust7" class="cluster">
<title>cluster_1_1</title>
<polygon fill="none" stroke="gray" points="510,-271 510,-467 634,-467 634,-271 510,-271"/>
<text text-anchor="middle" x="539" y="-451.8" font-family="Helvetica,Arial,sans-serif" font-size="14.00">level 1</text>
</g>
<g id="clust6" class="cluster">
<title>cluster_1_0</title>
<polygon fill="none" stroke="gray" points="330,-405 330,-579 502,-579 502,-405 330,-405"/>
<text text-anchor="middle" x="359" y="-563.8" font-family="Helvetica,Arial,sans-serif" font-size="14.00">level 0</text>
</g>
<g id="clust8" class="cluster">
<title>cluster_1_2</title>
<polygon fill="none" stroke="gray" points="402,-176 402,-238 542,-238 542,-176 402,-176"/>
<text text-anchor="middle" x="431" y="-222.8" font-family="Helvetica,Arial,sans-serif" font-size="14.00">level 2</text>
</g>
<!-- return -->
<g id="node1" class="node">
<title>return</title>
<polygon fill="none" stroke="black" stroke-width="0" points="219,-60 153,-60 153,-24 219,-24 219,-60"/>
<text text-anchor="middle" x="186" y="-38.3" font-family="Courier,monospace" font-size="14.00">return</text>
</g>
<!-- prm_2 -->
<g id="node2" class="node">
<title>prm_2</title>
<polygon fill="lightgrey" stroke="black" stroke-width="0" points="297.5,-436 214.5,-436 214.5,-413 297.5,-413 297.5,-436"/>
<text text-anchor="middle" x="256" y="-420.8" font-family="Courier,monospace" font-size="14.00">PRM_2048</text>
</g>
<!-- &gt; -->
<g id="node3" class="node">
<title>&gt;</title>
<polygon fill="lightgrey" stroke="black" stroke-width="0" points="282,-376 228,-376 228,-353 282,-353 282,-376"/>
<text text-anchor="middle" x="255" y="-360.8" font-family="Courier,monospace" font-size="14.00">&gt;</text>
</g>
<!-- prm_2&#45;&gt;&gt; -->
<g id="edge1" class="edge">
<title>prm_2&#45;&gt;&gt;</title>
<path fill="none" stroke="darkred" d="M255.82,-412.86C255.69,-405.42 255.51,-395.24 255.36,-386.23"/>
<polygon fill="darkred" stroke="darkred" points="258.85,-386.01 255.18,-376.07 251.86,-386.13 258.85,-386.01"/>
</g>
<!-- sh_2 -->
<g id="node6" class="node">
<title>sh_2</title>
<polygon fill="lightgrey" stroke="black" stroke-width="0" points="118,-376 64,-376 64,-353 118,-353 118,-376"/>
<text text-anchor="middle" x="91" y="-360.8" font-family="Courier,monospace" font-size="14.00">[]</text>
</g>
<!-- prm_2&#45;&gt;sh_2 -->
<g id="edge5" class="edge">
<title>prm_2&#45;&gt;sh_2</title>
<path fill="none" stroke="darkred" d="M226.12,-413C198.5,-403.29 157.38,-388.83 127.76,-378.42"/>
<polygon fill="darkred" stroke="darkred" points="128.79,-375.07 118.2,-375.06 126.47,-381.68 128.79,-375.07"/>
</g>
<!-- sh_2_ -->
<g id="node7" class="node">
<title>sh_2_</title>
<polygon fill="lightgrey" stroke="black" stroke-width="0" points="190,-376 136,-376 136,-353 190,-353 190,-376"/>
<text text-anchor="middle" x="163" y="-360.8" font-family="Courier,monospace" font-size="14.00">[]</text>
</g>
<!-- prm_2&#45;&gt;sh_2_ -->
<g id="edge7" class="edge">
<title>prm_2&#45;&gt;sh_2_</title>
<path fill="none" stroke="darkred" d="M235.42,-412.97C225.73,-407.82 214.1,-401.37 204,-395 197.72,-391.04 191.11,-386.47 185.08,-382.13"/>
<polygon fill="darkred" stroke="darkred" points="186.89,-379.12 176.75,-376.04 182.75,-384.77 186.89,-379.12"/>
</g>
<!-- ternary -->
<g id="node9" class="node">
<title>ternary</title>
<polygon fill="lightgrey" stroke="black" stroke-width="0" points="189.5,-207 24.5,-207 24.5,-184 189.5,-184 189.5,-207"/>
<text text-anchor="middle" x="107" y="-191.8" font-family="Courier,monospace" font-size="14.00">op 0 ? op 1 : op 2</text>
</g>
<!-- prm_2&#45;&gt;ternary -->
<g id="edge9" class="edge">
<title>prm_2&#45;&gt;ternary</title>
<path fill="none" stroke="darkred" d="M247.02,-412.89C239.22,-403.48 227.83,-389.21 219,-376 182.03,-320.74 181.77,-301.39 145,-246 138.01,-235.47 129.49,-224.25 122.3,-215.16"/>
<polygon fill="darkred" stroke="darkred" points="124.89,-212.8 115.9,-207.19 119.43,-217.18 124.89,-212.8"/>
<text text-anchor="middle" x="211" y="-323.8" font-family="Courier,monospace" font-size="14.00">op 2</text>
</g>
<!-- &gt;&#45;&gt;ternary -->
<g id="edge10" class="edge">
<title>&gt;&#45;&gt;ternary</title>
<path fill="none" stroke="darkred" d="M254.27,-352.83C252.14,-330.09 244.04,-276.46 214,-246 198.07,-229.84 175.87,-218.4 155.82,-210.61"/>
<polygon fill="darkred" stroke="darkred" points="156.78,-207.24 146.18,-207.08 154.37,-213.81 156.78,-207.24"/>
<text text-anchor="middle" x="261" y="-286.8" font-family="Courier,monospace" font-size="14.00">op 0</text>
</g>
<!-- c_20 -->
<g id="node4" class="node">
<title>c_20</title>
<polygon fill="lightgrey" stroke="black" stroke-width="0" points="190,-436 136,-436 136,-413 190,-413 190,-436"/>
<text text-anchor="middle" x="163" y="-420.8" font-family="Courier,monospace" font-size="14.00">20</text>
</g>
<!-- c_20&#45;&gt;sh_2_ -->
<g id="edge2" class="edge">
<title>c_20&#45;&gt;sh_2_</title>
<path fill="none" stroke="darkred" d="M163,-412.86C163,-405.42 163,-395.24 163,-386.23"/>
<polygon fill="darkred" stroke="darkred" points="166.5,-386.07 163,-376.07 159.5,-386.07 166.5,-386.07"/>
</g>
<!-- c_4 -->
<g id="node5" class="node">
<title>c_4</title>
<polygon fill="lightgrey" stroke="black" stroke-width="0" points="118,-436 64,-436 64,-413 118,-413 118,-436"/>
<text text-anchor="middle" x="91" y="-420.8" font-family="Courier,monospace" font-size="14.00">&#45;4</text>
</g>
<!-- c_4&#45;&gt;sh_2 -->
<g id="edge3" class="edge">
<title>c_4&#45;&gt;sh_2</title>
<path fill="none" stroke="darkred" d="M91,-412.86C91,-405.42 91,-395.24 91,-386.23"/>
<polygon fill="darkred" stroke="darkred" points="94.5,-386.07 91,-376.07 87.5,-386.07 94.5,-386.07"/>
</g>
<!-- sub_2 -->
<g id="node8" class="node">
<title>sub_2</title>
<polygon fill="lightgrey" stroke="black" stroke-width="0" points="134,-302 80,-302 80,-279 134,-279 134,-302"/>
<text text-anchor="middle" x="107" y="-286.8" font-family="Courier,monospace" font-size="14.00">&#45;</text>
</g>
<!-- sh_2&#45;&gt;sub_2 -->
<g id="edge6" class="edge">
<title>sh_2&#45;&gt;sub_2</title>
<path fill="none" stroke="darkred" d="M93.36,-352.88C95.72,-342.24 99.42,-325.59 102.37,-312.32"/>
<polygon fill="darkred" stroke="darkred" points="105.88,-312.69 104.63,-302.17 99.04,-311.17 105.88,-312.69"/>
</g>
<!-- sh_2_&#45;&gt;sub_2 -->
<g id="edge8" class="edge">
<title>sh_2_&#45;&gt;sub_2</title>
<path fill="none" stroke="darkred" d="M154.74,-352.88C146.05,-341.71 132.21,-323.91 121.66,-310.35"/>
<polygon fill="darkred" stroke="darkred" points="124.2,-307.91 115.3,-302.17 118.67,-312.21 124.2,-307.91"/>
</g>
<!-- sub_2&#45;&gt;ternary -->
<g id="edge11" class="edge">
<title>sub_2&#45;&gt;ternary</title>
<path fill="none" stroke="darkred" d="M107,-278.83C107,-263.84 107,-236.22 107,-217.14"/>
<polygon fill="darkred" stroke="darkred" points="110.5,-217.04 107,-207.04 103.5,-217.04 110.5,-217.04"/>
<text text-anchor="middle" x="124" y="-249.8" font-family="Courier,monospace" font-size="14.00">op 1</text>
</g>
<!-- p_2 -->
<g id="node10" class="node">
<title>p_2</title>
<polygon fill="lightgrey" stroke="black" stroke-width="0" points="213,-120 159,-120 159,-97 213,-97 213,-120"/>
<text text-anchor="middle" x="186" y="-104.8" font-family="Courier,monospace" font-size="14.00">+</text>
</g>
<!-- ternary&#45;&gt;p_2 -->
<g id="edge12" class="edge">
<title>ternary&#45;&gt;p_2</title>
<path fill="none" stroke="darkred" d="M117.01,-183.73C130.06,-169.68 153.12,-144.88 168.96,-127.84"/>
<polygon fill="darkred" stroke="darkred" points="171.83,-129.89 176.08,-120.18 166.7,-125.12 171.83,-129.89"/>
</g>
<!-- p_2&#45;&gt;return -->
<g id="edge4" class="edge">
<title>p_2&#45;&gt;return</title>
<path fill="none" stroke="darkred" d="M186,-96.85C186,-89.62 186,-79.72 186,-70.37"/>
<polygon fill="darkred" stroke="darkred" points="189.5,-70.23 186,-60.23 182.5,-70.23 189.5,-70.23"/>
</g>
<!-- prm_1 -->
<g id="node11" class="node">
<title>prm_1</title>
<polygon fill="lightgrey" stroke="black" stroke-width="0" points="421.5,-548 338.5,-548 338.5,-525 421.5,-525 421.5,-548"/>
<text text-anchor="middle" x="380" y="-532.8" font-family="Courier,monospace" font-size="14.00">PRM_4086</text>
</g>
<!-- p_1 -->
<g id="node12" class="node">
<title>p_1</title>
<polygon fill="lightgrey" stroke="black" stroke-width="0" points="494,-436 440,-436 440,-413 494,-413 494,-436"/>
<text text-anchor="middle" x="467" y="-420.8" font-family="Courier,monospace" font-size="14.00">+</text>
</g>
<!-- prm_1&#45;&gt;p_1 -->
<g id="edge18" class="edge">
<title>prm_1&#45;&gt;p_1</title>
<path fill="none" stroke="darkred" d="M395.35,-524.85C404.65,-517.91 416.35,-508.26 425,-498 438.69,-481.76 450.43,-460.46 457.99,-445.16"/>
<polygon fill="darkred" stroke="darkred" points="461.17,-446.61 462.33,-436.08 454.86,-443.59 461.17,-446.61"/>
</g>
<!-- cos() -->
<g id="node14" class="node">
<title>cos()</title>
<polygon fill="lightgrey" stroke="black" stroke-width="0" points="416,-436 358,-436 358,-413 416,-413 416,-436"/>
<text text-anchor="middle" x="387" y="-420.8" font-family="Courier,monospace" font-size="14.00">cos()</text>
</g>
<!-- prm_1&#45;&gt;cos() -->
<g id="edge20" class="edge">
<title>prm_1&#45;&gt;cos()</title>
<path fill="none" stroke="darkred" d="M380.67,-524.95C381.82,-506.93 384.18,-469.89 385.67,-446.45"/>
<polygon fill="darkred" stroke="darkred" points="389.18,-446.38 386.32,-436.18 382.19,-445.93 389.18,-446.38"/>
</g>
<!-- c_1 -->
<g id="node16" class="node">
<title>c_1</title>
<polygon fill="lightgrey" stroke="black" stroke-width="0" points="601.5,-376 518.5,-376 518.5,-353 601.5,-353 601.5,-376"/>
<text text-anchor="middle" x="560" y="-360.8" font-family="Courier,monospace" font-size="14.00">convolve</text>
</g>
<!-- p_1&#45;&gt;c_1 -->
<g id="edge19" class="edge">
<title>p_1&#45;&gt;c_1</title>
<path fill="none" stroke="darkred" d="M484.06,-412.86C498.08,-404.11 518.18,-391.58 534.18,-381.6"/>
<polygon fill="darkred" stroke="darkred" points="536.42,-384.33 543.05,-376.07 532.71,-378.39 536.42,-384.33"/>
</g>
<!-- 1.0 -->
<g id="node13" class="node">
<title>1.0</title>
<polygon fill="lightgrey" stroke="black" stroke-width="0" points="494,-548 440,-548 440,-525 494,-525 494,-548"/>
<text text-anchor="middle" x="467" y="-532.8" font-family="Courier,monospace" font-size="14.00">1.0</text>
</g>
<!-- 1.0&#45;&gt;p_1 -->
<g id="edge13" class="edge">
<title>1.0&#45;&gt;p_1</title>
<path fill="none" stroke="darkred" d="M467,-524.95C467,-506.93 467,-469.89 467,-446.45"/>
<polygon fill="darkred" stroke="darkred" points="470.5,-446.18 467,-436.18 463.5,-446.18 470.5,-446.18"/>
</g>
<!-- m_1 -->
<g id="node17" class="node">
<title>m_1</title>
<polygon fill="lightgrey" stroke="black" stroke-width="0" points="572,-302 518,-302 518,-279 572,-279 572,-302"/>
<text text-anchor="middle" x="545" y="-286.8" font-family="Courier,monospace" font-size="14.00">*</text>
</g>
<!-- cos()&#45;&gt;m_1 -->
<g id="edge21" class="edge">
<title>cos()&#45;&gt;m_1</title>
<path fill="none" stroke="darkred" d="M399.66,-412.92C426.94,-390.14 491.43,-336.25 524.57,-308.57"/>
<polygon fill="darkred" stroke="darkred" points="526.85,-311.23 532.28,-302.13 522.36,-305.85 526.85,-311.23"/>
</g>
<!-- small_array -->
<g id="node15" class="node">
<title>small_array</title>
<polygon fill="lightgrey" stroke="black" stroke-width="0" points="625.5,-436 518.5,-436 518.5,-413 625.5,-413 625.5,-436"/>
<text text-anchor="middle" x="572" y="-420.8" font-family="Courier,monospace" font-size="14.00">small_array</text>
</g>
<!-- small_array&#45;&gt;c_1 -->
<g id="edge14" class="edge">
<title>small_array&#45;&gt;c_1</title>
<path fill="none" stroke="darkred" d="M569.8,-412.86C568.24,-405.34 566.11,-395.02 564.23,-385.93"/>
<polygon fill="darkred" stroke="darkred" points="567.64,-385.15 562.19,-376.07 560.79,-386.57 567.64,-385.15"/>
</g>
<!-- c_1&#45;&gt;m_1 -->
<g id="edge15" class="edge">
<title>c_1&#45;&gt;m_1</title>
<path fill="none" stroke="darkred" d="M557.79,-352.88C555.57,-342.24 552.1,-325.59 549.34,-312.32"/>
<polygon fill="darkred" stroke="darkred" points="552.69,-311.24 547.22,-302.17 545.84,-312.67 552.69,-311.24"/>
</g>
<!-- decim -->
<g id="node18" class="node">
<title>decim</title>
<polygon fill="lightgrey" stroke="black" stroke-width="0" points="534,-207 410,-207 410,-184 534,-184 534,-207"/>
<text text-anchor="middle" x="472" y="-191.8" font-family="Courier,monospace" font-size="14.00">decimation x2</text>
</g>
<!-- m_1&#45;&gt;decim -->
<g id="edge16" class="edge">
<title>m_1&#45;&gt;decim</title>
<path fill="none" stroke="darkred" d="M536.63,-278.83C524.41,-263.27 501.55,-234.14 486.55,-215.03"/>
<polygon fill="darkred" stroke="darkred" points="489.2,-212.75 480.28,-207.04 483.7,-217.07 489.2,-212.75"/>
</g>
<!-- decim&#45;&gt;p_2 -->
<g id="edge17" class="edge">
<title>decim&#45;&gt;p_2</title>
<path fill="none" stroke="darkred" d="M436.64,-183.99C382.19,-167.81 278.33,-136.94 222.94,-120.48"/>
<polygon fill="darkred" stroke="darkred" points="223.76,-117.07 213.18,-117.58 221.77,-123.78 223.76,-117.07"/>
</g>
</g>
</svg>
