<?xml version="1.0" encoding="UTF-8" standalone="no"?>
<!DOCTYPE svg PUBLIC "-//W3C//DTD SVG 1.1//EN"
 "http://www.w3.org/Graphics/SVG/1.1/DTD/svg11.dtd">
<!-- Generated by graphviz version 3.0.0 (20220226.1711)
 -->
<!-- Pages: 1 -->
<svg width="548pt" height="260pt"
 viewBox="0.00 0.00 548.00 260.00" xmlns="http://www.w3.org/2000/svg" xmlns:xlink="http://www.w3.org/1999/xlink">
<g id="graph0" class="graph" transform="scale(1 1) rotate(0) translate(4 256)">
<polygon fill="transparent" stroke="transparent" points="-4,4 -4,-256 544,-256 544,4 -4,4"/>
<!-- 4 -->
<g id="node1" class="node">
<title>4</title>
<g id="a_node1"><a xlink:title="CallRecursiveFunctionTemplate">
<polygon fill="#ffffff" stroke="black" points="195,-252 0,-252 0,-216 195,-216 195,-252"/>
<text text-anchor="middle" x="97.5" y="-230.3" font-family="Times New Roman,serif" font-size="14.00">CallRecursiveFunctionTemplate</text>
</a>
</g>
</g>
<!-- 3 -->
<g id="node3" class="node">
<title>3</title>
<g id="a_node3"><a xlink:title="CallTemplate_ifs">
<polygon fill="#ffffff" stroke="black" points="314,-180 203,-180 203,-144 314,-144 314,-180"/>
<text text-anchor="middle" x="258.5" y="-158.3" font-family="Times New Roman,serif" font-size="14.00">CallTemplate_ifs</text>
</a>
</g>
</g>
<!-- 4&#45;&gt;3 -->
<g id="edge1" class="edge">
<title>4&#45;&gt;3</title>
<g id="a_edge1"><a xlink:title="public&#45;inheritance">
<path fill="none" stroke="#1414ce" d="M136.89,-215.88C158.89,-206.31 186.51,-194.3 209.86,-184.15"/>
<polygon fill="#1414ce" stroke="#1414ce" points="211.47,-187.27 219.24,-180.07 208.68,-180.85 211.47,-187.27"/>
</a>
</g>
</g>
<!-- 5 -->
<g id="node2" class="node">
<title>5</title>
<g id="a_node2"><a xlink:title="CallTemplate">
<polygon fill="#ffffff" stroke="black" points="303.5,-252 213.5,-252 213.5,-216 303.5,-216 303.5,-252"/>
<text text-anchor="middle" x="258.5" y="-230.3" font-family="Times New Roman,serif" font-size="14.00">CallTemplate</text>
</a>
</g>
</g>
<!-- 5&#45;&gt;3 -->
<g id="edge2" class="edge">
<title>5&#45;&gt;3</title>
<g id="a_edge2"><a xlink:title="public&#45;inheritance">
<path fill="none" stroke="#1414ce" d="M258.5,-215.7C258.5,-207.98 258.5,-198.71 258.5,-190.11"/>
<polygon fill="#1414ce" stroke="#1414ce" points="262,-190.1 258.5,-180.1 255,-190.1 262,-190.1"/>
</a>
</g>
</g>
<!-- 1 -->
<g id="node5" class="node">
<title>1</title>
<g id="a_node5"><a xlink:title="ExValue_ifs">
<polygon fill="#bfbfbf" stroke="black" points="422.5,-108 338.5,-108 338.5,-72 422.5,-72 422.5,-108"/>
<text text-anchor="middle" x="380.5" y="-86.3" font-family="Times New Roman,serif" font-size="14.00">ExValue_ifs</text>
</a>
</g>
</g>
<!-- 3&#45;&gt;1 -->
<g id="edge3" class="edge">
<title>3&#45;&gt;1</title>
<g id="a_edge3"><a xlink:title="public&#45;inheritance">
<path fill="none" stroke="#1414ce" d="M288.34,-143.88C304.44,-134.64 324.5,-123.13 341.79,-113.21"/>
<polygon fill="#1414ce" stroke="#1414ce" points="343.61,-116.2 350.54,-108.19 340.13,-110.13 343.61,-116.2"/>
</a>
</g>
</g>
<!-- 7 -->
<g id="node4" class="node">
<title>7</title>
<g id="a_node4"><a xlink:title="ExConstValue">
<polygon fill="#ffffff" stroke="black" points="429,-180 332,-180 332,-144 429,-144 429,-180"/>
<text text-anchor="middle" x="380.5" y="-158.3" font-family="Times New Roman,serif" font-size="14.00">ExConstValue</text>
</a>
</g>
</g>
<!-- 7&#45;&gt;1 -->
<g id="edge4" class="edge">
<title>7&#45;&gt;1</title>
<g id="a_edge4"><a xlink:title="public&#45;inheritance">
<path fill="none" stroke="#1414ce" d="M380.5,-143.7C380.5,-135.98 380.5,-126.71 380.5,-118.11"/>
<polygon fill="#1414ce" stroke="#1414ce" points="384,-118.1 380.5,-108.1 377,-118.1 384,-118.1"/>
</a>
</g>
</g>
<!-- 2 -->
<g id="node7" class="node">
<title>2</title>
<g id="a_node7"><a xlink:title="SmallArr">
<polygon fill="#ffffff" stroke="black" points="413.5,-36 347.5,-36 347.5,0 413.5,0 413.5,-36"/>
<text text-anchor="middle" x="380.5" y="-14.3" font-family="Times New Roman,serif" font-size="14.00">SmallArr</text>
</a>
</g>
</g>
<!-- 1&#45;&gt;2 -->
<g id="edge5" class="edge">
<title>1&#45;&gt;2</title>
<g id="a_edge5"><a xlink:title="public&#45;inheritance">
<path fill="none" stroke="#1414ce" d="M380.5,-71.7C380.5,-63.98 380.5,-54.71 380.5,-46.11"/>
<polygon fill="#1414ce" stroke="#1414ce" points="384,-46.1 380.5,-36.1 377,-46.1 384,-46.1"/>
</a>
</g>
</g>
<!-- 8 -->
<g id="node6" class="node">
<title>8</title>
<g id="a_node6"><a xlink:title="Operation_ifs">
<polygon fill="#ffffff" stroke="black" points="540,-180 447,-180 447,-144 540,-144 540,-180"/>
<text text-anchor="middle" x="493.5" y="-158.3" font-family="Times New Roman,serif" font-size="14.00">Operation_ifs</text>
</a>
</g>
</g>
<!-- 8&#45;&gt;1 -->
<g id="edge6" class="edge">
<title>8&#45;&gt;1</title>
<g id="a_edge6"><a xlink:title="public&#45;inheritance">
<path fill="none" stroke="#1414ce" d="M465.86,-143.88C451.08,-134.72 432.71,-123.34 416.8,-113.48"/>
<polygon fill="#1414ce" stroke="#1414ce" points="418.59,-110.48 408.25,-108.19 414.91,-116.43 418.59,-110.48"/>
</a>
</g>
</g>
<!-- 6 -->
<g id="node8" class="node">
<title>6</title>
<g id="a_node8"><a xlink:title="TailCallDirectiveTemplate">
<polygon fill="#ffffff" stroke="black" points="483,-252 322,-252 322,-216 483,-216 483,-252"/>
<text text-anchor="middle" x="402.5" y="-230.3" font-family="Times New Roman,serif" font-size="14.00">TailCallDirectiveTemplate</text>
</a>
</g>
</g>
<!-- 6&#45;&gt;3 -->
<g id="edge7" class="edge">
<title>6&#45;&gt;3</title>
<g id="a_edge7"><a xlink:title="public&#45;inheritance">
<path fill="none" stroke="#1414ce" d="M367.27,-215.88C347.92,-206.47 323.73,-194.71 303.07,-184.67"/>
<polygon fill="#1414ce" stroke="#1414ce" points="304.39,-181.41 293.86,-180.19 301.33,-187.71 304.39,-181.41"/>
</a>
</g>
</g>
</g>
</svg>
