<?xml version="1.0" encoding="UTF-8" standalone="no"?>
<!DOCTYPE svg PUBLIC "-//W3C//DTD SVG 1.1//EN"
 "http://www.w3.org/Graphics/SVG/1.1/DTD/svg11.dtd">
<!-- Generated by graphviz version 3.0.0 (20220226.1711)
 -->
<!-- Pages: 1 -->
<svg width="101pt" height="188pt"
 viewBox="0.00 0.00 101.00 188.00" xmlns="http://www.w3.org/2000/svg" xmlns:xlink="http://www.w3.org/1999/xlink">
<g id="graph0" class="graph" transform="scale(1 1) rotate(0) translate(4 184)">
<polygon fill="transparent" stroke="transparent" points="-4,4 -4,-184 97,-184 97,4 -4,4"/>
<!-- 2 -->
<g id="node1" class="node">
<title>2</title>
<g id="a_node1"><a xlink:title="ExValue_ifs">
<polygon fill="#ffffff" stroke="black" points="88.5,-108 4.5,-108 4.5,-72 88.5,-72 88.5,-108"/>
<text text-anchor="middle" x="46.5" y="-86.3" font-family="Times New Roman,serif" font-size="14.00">ExValue_ifs</text>
</a>
</g>
</g>
<!-- 3 -->
<g id="node3" class="node">
<title>3</title>
<g id="a_node3"><a xlink:title="SmallArr">
<polygon fill="#ffffff" stroke="black" points="79.5,-36 13.5,-36 13.5,0 79.5,0 79.5,-36"/>
<text text-anchor="middle" x="46.5" y="-14.3" font-family="Times New Roman,serif" font-size="14.00">SmallArr</text>
</a>
</g>
</g>
<!-- 2&#45;&gt;3 -->
<g id="edge1" class="edge">
<title>2&#45;&gt;3</title>
<g id="a_edge1"><a xlink:title="public&#45;inheritance">
<path fill="none" stroke="#1414ce" d="M46.5,-71.7C46.5,-63.98 46.5,-54.71 46.5,-46.11"/>
<polygon fill="#1414ce" stroke="#1414ce" points="50,-46.1 46.5,-36.1 43,-46.1 50,-46.1"/>
</a>
</g>
</g>
<!-- 1 -->
<g id="node2" class="node">
<title>1</title>
<g id="a_node2"><a xlink:title="Operation_ifs">
<polygon fill="#bfbfbf" stroke="black" points="93,-180 0,-180 0,-144 93,-144 93,-180"/>
<text text-anchor="middle" x="46.5" y="-158.3" font-family="Times New Roman,serif" font-size="14.00">Operation_ifs</text>
</a>
</g>
</g>
<!-- 1&#45;&gt;2 -->
<g id="edge2" class="edge">
<title>1&#45;&gt;2</title>
<g id="a_edge2"><a xlink:title="public&#45;inheritance">
<path fill="none" stroke="#1414ce" d="M46.5,-143.7C46.5,-135.98 46.5,-126.71 46.5,-118.11"/>
<polygon fill="#1414ce" stroke="#1414ce" points="50,-118.1 46.5,-108.1 43,-118.1 50,-118.1"/>
</a>
</g>
</g>
</g>
</svg>
