<?xml version="1.0" encoding="UTF-8" standalone="no"?>
<!DOCTYPE svg PUBLIC "-//W3C//DTD SVG 1.1//EN"
 "http://www.w3.org/Graphics/SVG/1.1/DTD/svg11.dtd">
<!-- Generated by graphviz version 3.0.0 (20220226.1711)
 -->
<!-- Pages: 1 -->
<svg width="286pt" height="116pt"
 viewBox="0.00 0.00 286.00 116.00" xmlns="http://www.w3.org/2000/svg" xmlns:xlink="http://www.w3.org/1999/xlink">
<g id="graph0" class="graph" transform="scale(1 1) rotate(0) translate(4 112)">
<polygon fill="transparent" stroke="transparent" points="-4,4 -4,-112 282,-112 282,4 -4,4"/>
<!-- 2 -->
<g id="node1" class="node">
<title>2</title>
<g id="a_node1"><a xlink:title="ExStreamIfs">
<polygon fill="#ffffff" stroke="black" points="86,-36 0,-36 0,0 86,0 86,-36"/>
<text text-anchor="middle" x="43" y="-14.3" font-family="Times New Roman,serif" font-size="14.00">ExStreamIfs</text>
</a>
</g>
</g>
<!-- 4 -->
<g id="node2" class="node">
<title>4</title>
<g id="a_node2"><a xlink:title="ExTimeInterval">
<polygon fill="#ffffff" stroke="black" points="205.5,-36 104.5,-36 104.5,0 205.5,0 205.5,-36"/>
<text text-anchor="middle" x="155" y="-14.3" font-family="Times New Roman,serif" font-size="14.00">ExTimeInterval</text>
</a>
</g>
</g>
<!-- 1 -->
<g id="node3" class="node">
<title>1</title>
<g id="a_node3"><a xlink:title="ParameterIfs">
<polygon fill="#bfbfbf" stroke="black" points="198.5,-108 111.5,-108 111.5,-72 198.5,-72 198.5,-108"/>
<text text-anchor="middle" x="155" y="-86.3" font-family="Times New Roman,serif" font-size="14.00">ParameterIfs</text>
</a>
</g>
</g>
<!-- 1&#45;&gt;2 -->
<g id="edge1" class="edge">
<title>1&#45;&gt;2</title>
<g id="a_edge1"><a xlink:title="usage">
<path fill="none" stroke="#1414ce" d="M127.6,-71.88C113.09,-62.81 95.08,-51.55 79.41,-41.76"/>
<polygon fill="#1414ce" stroke="#1414ce" points="80.84,-38.52 70.5,-36.19 77.13,-44.46 80.84,-38.52"/>
</a>
</g>
</g>
<!-- 1&#45;&gt;4 -->
<g id="edge3" class="edge">
<title>1&#45;&gt;4</title>
<g id="a_edge3"><a xlink:title="usage">
<path fill="none" stroke="#1414ce" d="M155,-71.7C155,-63.98 155,-54.71 155,-46.11"/>
<polygon fill="#1414ce" stroke="#1414ce" points="158.5,-46.1 155,-36.1 151.5,-46.1 158.5,-46.1"/>
</a>
</g>
</g>
<!-- 3 -->
<g id="node4" class="node">
<title>3</title>
<g id="a_node4"><a xlink:title="string">
<polygon fill="#ffffff" stroke="black" points="278,-36 224,-36 224,0 278,0 278,-36"/>
<text text-anchor="middle" x="251" y="-14.3" font-family="Times New Roman,serif" font-size="14.00">string</text>
</a>
</g>
</g>
<!-- 1&#45;&gt;3 -->
<g id="edge2" class="edge">
<title>1&#45;&gt;3</title>
<g id="a_edge2"><a xlink:title="usage">
<path fill="none" stroke="#1414ce" d="M178.73,-71.7C190.94,-62.8 205.99,-51.82 219.18,-42.2"/>
<polygon fill="#1414ce" stroke="#1414ce" points="221.52,-44.82 227.54,-36.1 217.4,-39.17 221.52,-44.82"/>
</a>
</g>
</g>
</g>
</svg>
