<?xml version="1.0" encoding="UTF-8" standalone="no"?>
<!DOCTYPE svg PUBLIC "-//W3C//DTD SVG 1.1//EN"
 "http://www.w3.org/Graphics/SVG/1.1/DTD/svg11.dtd">
<!-- Generated by graphviz version 3.0.0 (20220226.1711)
 -->
<!-- Pages: 1 -->
<svg width="328pt" height="116pt"
 viewBox="0.00 0.00 328.00 116.00" xmlns="http://www.w3.org/2000/svg" xmlns:xlink="http://www.w3.org/1999/xlink">
<g id="graph0" class="graph" transform="scale(1 1) rotate(0) translate(4 112)">
<polygon fill="transparent" stroke="transparent" points="-4,4 -4,-112 324,-112 324,4 -4,4"/>
<!-- 3 -->
<g id="node1" class="node">
<title>3</title>
<g id="a_node1"><a xlink:title="DatasetsStorage_ifs">
<polygon fill="#ffffff" stroke="black" points="128,-36 0,-36 0,0 128,0 128,-36"/>
<text text-anchor="middle" x="64" y="-14.3" font-family="Times New Roman,serif" font-size="14.00">DatasetsStorage_ifs</text>
</a>
</g>
</g>
<!-- 1 -->
<g id="node2" class="node">
<title>1</title>
<g id="a_node2"><a xlink:title="ExDataInterval">
<polygon fill="#bfbfbf" stroke="black" points="246,-108 148,-108 148,-72 246,-72 246,-108"/>
<text text-anchor="middle" x="197" y="-86.3" font-family="Times New Roman,serif" font-size="14.00">ExDataInterval</text>
</a>
</g>
</g>
<!-- 1&#45;&gt;3 -->
<g id="edge2" class="edge">
<title>1&#45;&gt;3</title>
<g id="a_edge2"><a xlink:title="usage">
<path fill="none" stroke="#1414ce" d="M164.46,-71.88C146.75,-62.55 124.65,-50.92 105.68,-40.94"/>
<polygon fill="#1414ce" stroke="#1414ce" points="107.14,-37.75 96.66,-36.19 103.88,-43.94 107.14,-37.75"/>
</a>
</g>
</g>
<!-- 2 -->
<g id="node3" class="node">
<title>2</title>
<g id="a_node3"><a xlink:title="ExTimeInterval">
<polygon fill="#ffffff" stroke="black" points="247.5,-36 146.5,-36 146.5,0 247.5,0 247.5,-36"/>
<text text-anchor="middle" x="197" y="-14.3" font-family="Times New Roman,serif" font-size="14.00">ExTimeInterval</text>
</a>
</g>
</g>
<!-- 1&#45;&gt;2 -->
<g id="edge1" class="edge">
<title>1&#45;&gt;2</title>
<g id="a_edge1"><a xlink:title="usage">
<path fill="none" stroke="#1414ce" d="M197,-71.7C197,-63.98 197,-54.71 197,-46.11"/>
<polygon fill="#1414ce" stroke="#1414ce" points="200.5,-46.1 197,-36.1 193.5,-46.1 200.5,-46.1"/>
</a>
</g>
</g>
<!-- 4 -->
<g id="node4" class="node">
<title>4</title>
<g id="a_node4"><a xlink:title="string">
<polygon fill="#ffffff" stroke="black" points="320,-36 266,-36 266,0 320,0 320,-36"/>
<text text-anchor="middle" x="293" y="-14.3" font-family="Times New Roman,serif" font-size="14.00">string</text>
</a>
</g>
</g>
<!-- 1&#45;&gt;4 -->
<g id="edge3" class="edge">
<title>1&#45;&gt;4</title>
<g id="a_edge3"><a xlink:title="usage">
<path fill="none" stroke="#1414ce" d="M220.73,-71.7C232.94,-62.8 247.99,-51.82 261.18,-42.2"/>
<polygon fill="#1414ce" stroke="#1414ce" points="263.52,-44.82 269.54,-36.1 259.4,-39.17 263.52,-44.82"/>
</a>
</g>
</g>
</g>
</svg>
