<?xml version="1.0" encoding="UTF-8" standalone="no"?><svg xmlns="http://www.w3.org/2000/svg" xmlns:xlink="http://www.w3.org/1999/xlink" contentStyleType="text/css" height="254px" preserveAspectRatio="none" style="width:500px;height:254px;background:#FFFFFF;" version="1.1" viewBox="0 0 500 254" width="500px" zoomAndPan="magnify"><defs/><g><rect fill="#FFFFFF" height="145.4063" style="stroke:#181818;stroke-width:1.0;" width="10" x="23" y="47.6094"/><rect fill="#FFFFFF" height="123.0547" style="stroke:#181818;stroke-width:1.0;" width="10" x="210" y="69.9609"/><line style="stroke:#181818;stroke-width:0.5;stroke-dasharray:5.0,5.0;" x1="28" x2="28" y1="37.6094" y2="218.0156"/><line style="stroke:#181818;stroke-width:0.5;stroke-dasharray:5.0,5.0;" x1="214.5" x2="214.5" y1="37.6094" y2="218.0156"/><rect fill="#E2E2F0" height="31.6094" rx="2.5" ry="2.5" style="stroke:#181818;stroke-width:0.5;" width="46" x="5" y="5"/><text fill="#000000" font-family="sans-serif" font-size="14" lengthAdjust="spacing" textLength="32" x="12" y="26.5332">Body</text><rect fill="#E2E2F0" height="31.6094" rx="2.5" ry="2.5" style="stroke:#181818;stroke-width:0.5;" width="46" x="5" y="217.0156"/><text fill="#000000" font-family="sans-serif" font-size="14" lengthAdjust="spacing" textLength="32" x="12" y="238.5488">Body</text><rect fill="#E2E2F0" height="31.6094" rx="2.5" ry="2.5" style="stroke:#181818;stroke-width:0.5;" width="99" x="165.5" y="5"/><text fill="#000000" font-family="sans-serif" font-size="14" lengthAdjust="spacing" textLength="85" x="172.5" y="26.5332">Operation_ifs</text><rect fill="#E2E2F0" height="31.6094" rx="2.5" ry="2.5" style="stroke:#181818;stroke-width:0.5;" width="99" x="165.5" y="217.0156"/><text fill="#000000" font-family="sans-serif" font-size="14" lengthAdjust="spacing" textLength="85" x="172.5" y="238.5488">Operation_ifs</text><rect fill="#FFFFFF" height="145.4063" style="stroke:#181818;stroke-width:1.0;" width="10" x="23" y="47.6094"/><rect fill="#FFFFFF" height="123.0547" style="stroke:#181818;stroke-width:1.0;" width="10" x="210" y="69.9609"/><polygon fill="#181818" points="198,65.9609,208,69.9609,198,73.9609,202,69.9609" style="stroke:#181818;stroke-width:1.0;"/><line style="stroke:#181818;stroke-width:1.0;" x1="33" x2="204" y1="69.9609" y2="69.9609"/><text fill="#000000" font-family="sans-serif" font-size="13" lengthAdjust="spacing" textLength="158" x="40" y="65.1045">reverseTraversalVisitEnter:</text><line style="stroke:#181818;stroke-width:1.0;" x1="220" x2="262" y1="100.3125" y2="100.3125"/><line style="stroke:#181818;stroke-width:1.0;" x1="262" x2="262" y1="100.3125" y2="113.3125"/><line style="stroke:#181818;stroke-width:1.0;" x1="221" x2="262" y1="113.3125" y2="113.3125"/><polygon fill="#181818" points="231,109.3125,221,113.3125,231,117.3125,227,113.3125" style="stroke:#181818;stroke-width:1.0;"/><text fill="#000000" font-family="sans-serif" font-size="13" lengthAdjust="spacing" textLength="266" x="227" y="95.4561">commonMarkUnusedVisitEnter(visitor_stack);</text><line style="stroke:#181818;stroke-width:1.0;" x1="220" x2="262" y1="143.6641" y2="143.6641"/><line style="stroke:#181818;stroke-width:1.0;" x1="262" x2="262" y1="143.6641" y2="156.6641"/><line style="stroke:#181818;stroke-width:1.0;" x1="221" x2="262" y1="156.6641" y2="156.6641"/><polygon fill="#181818" points="231,152.6641,221,156.6641,231,160.6641,227,156.6641" style="stroke:#181818;stroke-width:1.0;"/><text fill="#000000" font-family="sans-serif" font-size="13" lengthAdjust="spacing" textLength="210" x="227" y="138.8076">visitEnterSetupBuffer(visitor_stack);</text><line style="stroke:#181818;stroke-width:1.0;" x1="220" x2="262" y1="192.0156" y2="192.0156"/><line style="stroke:#181818;stroke-width:1.0;" x1="262" x2="262" y1="192.0156" y2="205.0156"/><line style="stroke:#181818;stroke-width:1.0;" x1="215" x2="262" y1="205.0156" y2="205.0156"/><polygon fill="#181818" points="225,201.0156,215,205.0156,225,209.0156,221,205.0156" style="stroke:#181818;stroke-width:1.0;"/><text fill="#000000" font-family="sans-serif" font-size="13" lengthAdjust="spacing" textLength="216" x="227" y="187.1592">visitEnterStackUpdate(visitor_stack);</text><!--MD5=[82d6e2899536e8e7e1f8dea9f5655f78]
@startuml
activate Body

Body -> Operation_ifs: reverseTraversalVisitEnter:

    activate Operation_ifs

        Operation_ifs ->Operation_ifs:   commonMarkUnusedVisitEnter(visitor_stack);
        Operation_ifs ->Operation_ifs:   visitEnterSetupBuffer(visitor_stack);
        Operation_ifs ->Operation_ifs:   visitEnterStackUpdate(visitor_stack);

    deactivate Operation_ifs

deactivate Body
@enduml

PlantUML version 1.2022.6(Tue Jun 21 20:34:49 MSK 2022)
(MIT source distribution)
Java Runtime: OpenJDK Runtime Environment
JVM: OpenJDK 64-Bit Server VM
Default Encoding: Cp1251
Language: ru
Country: RU
--></g></svg>